<svg width="385" height="155" viewBox="0 0 385 155" fill="none" xmlns="http://www.w3.org/2000/svg">
<path d="M76.5953 59.6C76.5953 54 77.7153 49.0133 79.9553 44.64C82.2486 40.2667 85.502 36.88 89.7153 34.48C93.9286 32.0267 98.8886 30.8 104.595 30.8C109.502 30.8 113.875 31.7333 117.715 33.6C121.609 35.4133 124.755 38 127.155 41.36C129.609 44.72 131.235 48.64 132.035 53.12H113.315C112.462 51.2533 111.235 49.8133 109.635 48.8C108.089 47.7333 106.302 47.2 104.275 47.2C101.289 47.2 98.9153 48.32 97.1553 50.56C95.4486 52.8 94.5953 55.8133 94.5953 59.6C94.5953 63.3867 95.4486 66.4 97.1553 68.64C98.9153 70.88 101.289 72 104.275 72C106.302 72 108.089 71.4933 109.635 70.48C111.235 69.4133 112.462 67.9467 113.315 66.08H132.035C131.235 70.56 129.609 74.48 127.155 77.84C124.755 81.2 121.609 83.8133 117.715 85.68C113.875 87.4933 109.502 88.4 104.595 88.4C98.8886 88.4 93.9286 87.2 89.7153 84.8C85.502 82.3467 82.2486 78.9333 79.9553 74.56C77.7153 70.1867 76.5953 65.2 76.5953 59.6ZM155.79 31.36V63.28C155.79 65.8933 156.35 67.9733 157.47 69.52C158.643 71.0133 160.51 71.76 163.07 71.76C165.63 71.76 167.523 71.0133 168.75 69.52C169.976 67.9733 170.59 65.8933 170.59 63.28V31.36H188.27V63.28C188.27 68.6667 187.15 73.28 184.91 77.12C182.67 80.9067 179.603 83.76 175.71 85.68C171.816 87.6 167.47 88.56 162.67 88.56C157.87 88.56 153.603 87.6 149.87 85.68C146.19 83.76 143.31 80.9067 141.23 77.12C139.15 73.3333 138.11 68.72 138.11 63.28V31.36H155.79ZM194.33 59.6C194.33 54 195.45 49.0133 197.69 44.64C199.983 40.2667 203.236 36.88 207.45 34.48C211.663 32.0267 216.623 30.8 222.33 30.8C227.236 30.8 231.61 31.7333 235.45 33.6C239.343 35.4133 242.49 38 244.89 41.36C247.343 44.72 248.97 48.64 249.77 53.12H231.05C230.196 51.2533 228.97 49.8133 227.37 48.8C225.823 47.7333 224.036 47.2 222.01 47.2C219.023 47.2 216.65 48.32 214.89 50.56C213.183 52.8 212.33 55.8133 212.33 59.6C212.33 63.3867 213.183 66.4 214.89 68.64C216.65 70.88 219.023 72 222.01 72C224.036 72 225.823 71.4933 227.37 70.48C228.97 69.4133 230.196 67.9467 231.05 66.08H249.77C248.97 70.56 247.343 74.48 244.89 77.84C242.49 81.2 239.343 83.8133 235.45 85.68C231.61 87.4933 227.236 88.4 222.33 88.4C216.623 88.4 211.663 87.2 207.45 84.8C203.236 82.3467 199.983 78.9333 197.69 74.56C195.45 70.1867 194.33 65.2 194.33 59.6ZM283.764 88.56C278.431 88.56 273.524 87.3067 269.044 84.8C264.617 82.2933 261.097 78.8267 258.484 74.4C255.871 69.9733 254.564 64.9867 254.564 59.44C254.564 53.8933 255.871 48.9067 258.484 44.48C261.097 40.0533 264.617 36.6133 269.044 34.16C273.524 31.6533 278.431 30.4 283.764 30.4C289.097 30.4 293.977 31.6533 298.404 34.16C302.831 36.6133 306.324 40.0533 308.884 44.48C311.497 48.9067 312.804 53.8933 312.804 59.44C312.804 64.9867 311.497 69.9733 308.884 74.4C306.324 78.8267 302.804 82.2933 298.324 84.8C293.897 87.3067 289.044 88.56 283.764 88.56ZM283.764 72C287.284 72 290.004 70.88 291.924 68.64C293.844 66.3467 294.804 63.28 294.804 59.44C294.804 55.5467 293.844 52.48 291.924 50.24C290.004 47.9467 287.284 46.8 283.764 46.8C280.191 46.8 277.444 47.9467 275.524 50.24C273.604 52.48 272.644 55.5467 272.644 59.44C272.644 63.28 273.604 66.3467 275.524 68.64C277.444 70.88 280.191 72 283.764 72Z" fill="white"/>
<path d="M129.134 123L123.118 113.176H122.51H117.454V123H116.814V100.472H122.446C124.92 100.472 126.755 101.037 127.95 102.168C129.166 103.299 129.774 104.845 129.774 106.808C129.774 108.621 129.262 110.072 128.238 111.16C127.214 112.248 125.752 112.899 123.854 113.112L129.934 123H129.134ZM122.51 112.568C124.707 112.568 126.35 112.045 127.438 111C128.547 109.955 129.102 108.557 129.102 106.808C129.102 103.011 126.883 101.112 122.446 101.112H117.454V112.568H122.51ZM134.579 101.048V111.448H143.987V112.024H134.579V122.424H144.947V123H133.939V100.472H144.947V101.048H134.579ZM169.315 101.112V123H168.675V102.68L159.619 123H158.979L149.891 102.68V123H149.251V101.112H149.891L159.299 122.168L168.675 101.112H169.315ZM175.391 100.472V123H174.751V100.472H175.391ZM196.109 123H195.469L181.485 101.656V123H180.845V100.504H181.485L195.469 121.816V100.504H196.109V123ZM207.484 100.472C211.366 100.472 214.321 101.453 216.348 103.416C218.374 105.379 219.388 108.152 219.388 111.736C219.388 115.32 218.374 118.093 216.348 120.056C214.321 122.019 211.366 123 207.484 123H201.564V100.472H207.484ZM207.484 122.424C211.196 122.424 214.001 121.485 215.9 119.608C217.798 117.731 218.748 115.107 218.748 111.736C218.748 108.365 217.798 105.741 215.9 103.864C214.001 101.987 211.196 101.048 207.484 101.048H202.204V122.424H207.484ZM224.673 101.048V111.448H234.081V112.024H224.673V122.424H235.041V123H224.033V100.472H235.041V101.048H224.673ZM251.665 123L245.649 113.176H245.041H239.985V123H239.345V100.472H244.977C247.452 100.472 249.286 101.037 250.481 102.168C251.697 103.299 252.305 104.845 252.305 106.808C252.305 108.621 251.793 110.072 250.769 111.16C249.745 112.248 248.284 112.899 246.385 113.112L252.465 123H251.665ZM245.041 112.568C247.238 112.568 248.881 112.045 249.969 111C251.078 109.955 251.633 108.557 251.633 106.808C251.633 103.011 249.414 101.112 244.977 101.112H239.985V112.568H245.041ZM262.646 123.224C261.217 123.224 259.969 122.968 258.902 122.456C257.857 121.944 257.046 121.272 256.47 120.44C255.894 119.587 255.553 118.669 255.446 117.688H256.086C256.193 118.435 256.459 119.181 256.886 119.928C257.334 120.675 258.027 121.315 258.966 121.848C259.926 122.381 261.153 122.648 262.646 122.648C263.841 122.648 264.897 122.424 265.814 121.976C266.731 121.507 267.435 120.888 267.926 120.12C268.417 119.352 268.662 118.499 268.662 117.56C268.662 116.344 268.385 115.384 267.83 114.68C267.275 113.955 266.582 113.421 265.75 113.08C264.939 112.739 263.841 112.387 262.454 112.024C261.003 111.64 259.841 111.256 258.966 110.872C258.091 110.488 257.345 109.901 256.726 109.112C256.129 108.301 255.83 107.213 255.83 105.848C255.83 104.867 256.097 103.949 256.63 103.096C257.185 102.221 257.963 101.528 258.966 101.016C259.99 100.504 261.153 100.248 262.454 100.248C263.777 100.248 264.918 100.483 265.878 100.952C266.838 101.421 267.585 102.019 268.118 102.744C268.673 103.448 269.035 104.195 269.206 104.984H268.566C268.417 104.365 268.107 103.736 267.638 103.096C267.169 102.456 266.497 101.923 265.622 101.496C264.747 101.048 263.691 100.824 262.454 100.824C261.366 100.824 260.363 101.037 259.446 101.464C258.55 101.869 257.825 102.456 257.27 103.224C256.737 103.971 256.47 104.845 256.47 105.848C256.47 107.085 256.747 108.077 257.302 108.824C257.878 109.549 258.582 110.093 259.414 110.456C260.246 110.797 261.355 111.149 262.742 111.512C264.193 111.896 265.345 112.28 266.198 112.664C267.073 113.027 267.809 113.603 268.406 114.392C269.003 115.16 269.302 116.216 269.302 117.56C269.302 118.499 269.046 119.405 268.534 120.28C268.043 121.155 267.297 121.869 266.294 122.424C265.291 122.957 264.075 123.224 262.646 123.224Z" fill="#FBFAF6"/>
</svg>
