<svg width="385" height="289" viewBox="0 0 385 289" fill="none" xmlns="http://www.w3.org/2000/svg">
<g filter="url(#filter0_d_534_53)">
<path d="M67.5953 193.6C67.5953 188 68.7153 183.013 70.9553 178.64C73.2486 174.267 76.502 170.88 80.7153 168.48C84.9286 166.027 89.8886 164.8 95.5953 164.8C100.502 164.8 104.875 165.733 108.715 167.6C112.609 169.413 115.755 172 118.155 175.36C120.609 178.72 122.235 182.64 123.035 187.12H104.315C103.462 185.253 102.235 183.813 100.635 182.8C99.0886 181.733 97.302 181.2 95.2753 181.2C92.2886 181.2 89.9153 182.32 88.1553 184.56C86.4486 186.8 85.5953 189.813 85.5953 193.6C85.5953 197.387 86.4486 200.4 88.1553 202.64C89.9153 204.88 92.2886 206 95.2753 206C97.302 206 99.0886 205.493 100.635 204.48C102.235 203.413 103.462 201.947 104.315 200.08H123.035C122.235 204.56 120.609 208.48 118.155 211.84C115.755 215.2 112.609 217.813 108.715 219.68C104.875 221.493 100.502 222.4 95.5953 222.4C89.8886 222.4 84.9286 221.2 80.7153 218.8C76.502 216.347 73.2486 212.933 70.9553 208.56C68.7153 204.187 67.5953 199.2 67.5953 193.6ZM146.79 165.36V197.28C146.79 199.893 147.35 201.973 148.47 203.52C149.643 205.013 151.51 205.76 154.07 205.76C156.63 205.76 158.523 205.013 159.75 203.52C160.976 201.973 161.59 199.893 161.59 197.28V165.36H179.27V197.28C179.27 202.667 178.15 207.28 175.91 211.12C173.67 214.907 170.603 217.76 166.71 219.68C162.816 221.6 158.47 222.56 153.67 222.56C148.87 222.56 144.603 221.6 140.87 219.68C137.19 217.76 134.31 214.907 132.23 211.12C130.15 207.333 129.11 202.72 129.11 197.28V165.36H146.79ZM185.33 193.6C185.33 188 186.45 183.013 188.69 178.64C190.983 174.267 194.236 170.88 198.45 168.48C202.663 166.027 207.623 164.8 213.33 164.8C218.236 164.8 222.61 165.733 226.45 167.6C230.343 169.413 233.49 172 235.89 175.36C238.343 178.72 239.97 182.64 240.77 187.12H222.05C221.196 185.253 219.97 183.813 218.37 182.8C216.823 181.733 215.036 181.2 213.01 181.2C210.023 181.2 207.65 182.32 205.89 184.56C204.183 186.8 203.33 189.813 203.33 193.6C203.33 197.387 204.183 200.4 205.89 202.64C207.65 204.88 210.023 206 213.01 206C215.036 206 216.823 205.493 218.37 204.48C219.97 203.413 221.196 201.947 222.05 200.08H240.77C239.97 204.56 238.343 208.48 235.89 211.84C233.49 215.2 230.343 217.813 226.45 219.68C222.61 221.493 218.236 222.4 213.33 222.4C207.623 222.4 202.663 221.2 198.45 218.8C194.236 216.347 190.983 212.933 188.69 208.56C186.45 204.187 185.33 199.2 185.33 193.6ZM274.764 222.56C269.431 222.56 264.524 221.307 260.044 218.8C255.617 216.293 252.097 212.827 249.484 208.4C246.871 203.973 245.564 198.987 245.564 193.44C245.564 187.893 246.871 182.907 249.484 178.48C252.097 174.053 255.617 170.613 260.044 168.16C264.524 165.653 269.431 164.4 274.764 164.4C280.097 164.4 284.977 165.653 289.404 168.16C293.831 170.613 297.324 174.053 299.884 178.48C302.497 182.907 303.804 187.893 303.804 193.44C303.804 198.987 302.497 203.973 299.884 208.4C297.324 212.827 293.804 216.293 289.324 218.8C284.897 221.307 280.044 222.56 274.764 222.56ZM274.764 206C278.284 206 281.004 204.88 282.924 202.64C284.844 200.347 285.804 197.28 285.804 193.44C285.804 189.547 284.844 186.48 282.924 184.24C281.004 181.947 278.284 180.8 274.764 180.8C271.191 180.8 268.444 181.947 266.524 184.24C264.604 186.48 263.644 189.547 263.644 193.44C263.644 197.28 264.604 200.347 266.524 202.64C268.444 204.88 271.191 206 274.764 206Z" fill="url(#paint0_linear_534_53)" shape-rendering="crispEdges"/>
</g>
<path d="M129.134 257L123.118 247.176H122.51H117.454V257H116.814V234.472H122.446C124.92 234.472 126.755 235.037 127.95 236.168C129.166 237.299 129.774 238.845 129.774 240.808C129.774 242.621 129.262 244.072 128.238 245.16C127.214 246.248 125.752 246.899 123.854 247.112L129.934 257H129.134ZM122.51 246.568C124.707 246.568 126.35 246.045 127.438 245C128.547 243.955 129.102 242.557 129.102 240.808C129.102 237.011 126.883 235.112 122.446 235.112H117.454V246.568H122.51ZM134.579 235.048V245.448H143.987V246.024H134.579V256.424H144.947V257H133.939V234.472H144.947V235.048H134.579ZM169.315 235.112V257H168.675V236.68L159.619 257H158.979L149.891 236.68V257H149.251V235.112H149.891L159.299 256.168L168.675 235.112H169.315ZM175.391 234.472V257H174.751V234.472H175.391ZM196.109 257H195.469L181.485 235.656V257H180.845V234.504H181.485L195.469 255.816V234.504H196.109V257ZM207.484 234.472C211.366 234.472 214.321 235.453 216.348 237.416C218.374 239.379 219.388 242.152 219.388 245.736C219.388 249.32 218.374 252.093 216.348 254.056C214.321 256.019 211.366 257 207.484 257H201.564V234.472H207.484ZM207.484 256.424C211.196 256.424 214.001 255.485 215.9 253.608C217.798 251.731 218.748 249.107 218.748 245.736C218.748 242.365 217.798 239.741 215.9 237.864C214.001 235.987 211.196 235.048 207.484 235.048H202.204V256.424H207.484ZM224.673 235.048V245.448H234.081V246.024H224.673V256.424H235.041V257H224.033V234.472H235.041V235.048H224.673ZM251.665 257L245.649 247.176H245.041H239.985V257H239.345V234.472H244.977C247.452 234.472 249.286 235.037 250.481 236.168C251.697 237.299 252.305 238.845 252.305 240.808C252.305 242.621 251.793 244.072 250.769 245.16C249.745 246.248 248.284 246.899 246.385 247.112L252.465 257H251.665ZM245.041 246.568C247.238 246.568 248.881 246.045 249.969 245C251.078 243.955 251.633 242.557 251.633 240.808C251.633 237.011 249.414 235.112 244.977 235.112H239.985V246.568H245.041ZM262.646 257.224C261.217 257.224 259.969 256.968 258.902 256.456C257.857 255.944 257.046 255.272 256.47 254.44C255.894 253.587 255.553 252.669 255.446 251.688H256.086C256.193 252.435 256.459 253.181 256.886 253.928C257.334 254.675 258.027 255.315 258.966 255.848C259.926 256.381 261.153 256.648 262.646 256.648C263.841 256.648 264.897 256.424 265.814 255.976C266.731 255.507 267.435 254.888 267.926 254.12C268.417 253.352 268.662 252.499 268.662 251.56C268.662 250.344 268.385 249.384 267.83 248.68C267.275 247.955 266.582 247.421 265.75 247.08C264.939 246.739 263.841 246.387 262.454 246.024C261.003 245.64 259.841 245.256 258.966 244.872C258.091 244.488 257.345 243.901 256.726 243.112C256.129 242.301 255.83 241.213 255.83 239.848C255.83 238.867 256.097 237.949 256.63 237.096C257.185 236.221 257.963 235.528 258.966 235.016C259.99 234.504 261.153 234.248 262.454 234.248C263.777 234.248 264.918 234.483 265.878 234.952C266.838 235.421 267.585 236.019 268.118 236.744C268.673 237.448 269.035 238.195 269.206 238.984H268.566C268.417 238.365 268.107 237.736 267.638 237.096C267.169 236.456 266.497 235.923 265.622 235.496C264.747 235.048 263.691 234.824 262.454 234.824C261.366 234.824 260.363 235.037 259.446 235.464C258.55 235.869 257.825 236.456 257.27 237.224C256.737 237.971 256.47 238.845 256.47 239.848C256.47 241.085 256.747 242.077 257.302 242.824C257.878 243.549 258.582 244.093 259.414 244.456C260.246 244.797 261.355 245.149 262.742 245.512C264.193 245.896 265.345 246.28 266.198 246.664C267.073 247.027 267.809 247.603 268.406 248.392C269.003 249.16 269.302 250.216 269.302 251.56C269.302 252.499 269.046 253.405 268.534 254.28C268.043 255.155 267.297 255.869 266.294 256.424C265.291 256.957 264.075 257.224 262.646 257.224Z" fill="#FBFAF6"/>
<g filter="url(#filter1_d_534_53)">
<ellipse cx="175.173" cy="68" rx="64.1732" ry="59" fill="url(#paint1_linear_534_53)"/>
</g>
<g filter="url(#filter2_d_534_53)">
<path d="M259.565 70.0293C262.961 72.2767 262.389 77.4254 258.581 78.8727L234.78 87.9199C231.285 89.2486 227.622 86.4108 228.035 82.6944L230.603 59.5988C231.017 55.8824 235.214 53.9176 238.332 55.9808L259.565 70.0293Z" fill="url(#paint2_linear_534_53)"/>
</g>
<g filter="url(#filter3_d_534_53)">
<ellipse cx="168.114" cy="53.8913" rx="7.05906" ry="6.41304" fill="#E58D29"/>
</g>
<defs>
<filter id="filter0_d_534_53" x="59.5953" y="158.4" width="252.209" height="74.1602" filterUnits="userSpaceOnUse" color-interpolation-filters="sRGB">
<feFlood flood-opacity="0" result="BackgroundImageFix"/>
<feColorMatrix in="SourceAlpha" type="matrix" values="0 0 0 0 0 0 0 0 0 0 0 0 0 0 0 0 0 0 127 0" result="hardAlpha"/>
<feOffset dy="2"/>
<feGaussianBlur stdDeviation="4"/>
<feComposite in2="hardAlpha" operator="out"/>
<feColorMatrix type="matrix" values="0 0 0 0 1 0 0 0 0 0.643085 0 0 0 0 0.2375 0 0 0 0.5 0"/>
<feBlend mode="normal" in2="BackgroundImageFix" result="effect1_dropShadow_534_53"/>
<feBlend mode="normal" in="SourceGraphic" in2="effect1_dropShadow_534_53" result="shape"/>
</filter>
<filter id="filter1_d_534_53" x="100" y="0" width="152.346" height="142" filterUnits="userSpaceOnUse" color-interpolation-filters="sRGB">
<feFlood flood-opacity="0" result="BackgroundImageFix"/>
<feColorMatrix in="SourceAlpha" type="matrix" values="0 0 0 0 0 0 0 0 0 0 0 0 0 0 0 0 0 0 127 0" result="hardAlpha"/>
<feOffset dx="1" dy="3"/>
<feGaussianBlur stdDeviation="6"/>
<feComposite in2="hardAlpha" operator="out"/>
<feColorMatrix type="matrix" values="0 0 0 0 1 0 0 0 0 0.643085 0 0 0 0 0.2375 0 0 0 0.5 0"/>
<feBlend mode="normal" in2="BackgroundImageFix" result="effect1_dropShadow_534_53"/>
<feBlend mode="normal" in="SourceGraphic" in2="effect1_dropShadow_534_53" result="shape"/>
</filter>
<filter id="filter2_d_534_53" x="217.003" y="46.145" width="57.803" height="57.1074" filterUnits="userSpaceOnUse" color-interpolation-filters="sRGB">
<feFlood flood-opacity="0" result="BackgroundImageFix"/>
<feColorMatrix in="SourceAlpha" type="matrix" values="0 0 0 0 0 0 0 0 0 0 0 0 0 0 0 0 0 0 127 0" result="hardAlpha"/>
<feOffset dx="1" dy="3"/>
<feGaussianBlur stdDeviation="6"/>
<feComposite in2="hardAlpha" operator="out"/>
<feColorMatrix type="matrix" values="0 0 0 0 1 0 0 0 0 0.643085 0 0 0 0 0.2375 0 0 0 0.5 0"/>
<feBlend mode="normal" in2="BackgroundImageFix" result="effect1_dropShadow_534_53"/>
<feBlend mode="normal" in="SourceGraphic" in2="effect1_dropShadow_534_53" result="shape"/>
</filter>
<filter id="filter3_d_534_53" x="150.055" y="38.4783" width="38.1182" height="36.8262" filterUnits="userSpaceOnUse" color-interpolation-filters="sRGB">
<feFlood flood-opacity="0" result="BackgroundImageFix"/>
<feColorMatrix in="SourceAlpha" type="matrix" values="0 0 0 0 0 0 0 0 0 0 0 0 0 0 0 0 0 0 127 0" result="hardAlpha"/>
<feOffset dx="1" dy="3"/>
<feGaussianBlur stdDeviation="6"/>
<feComposite in2="hardAlpha" operator="out"/>
<feColorMatrix type="matrix" values="0 0 0 0 1 0 0 0 0 0.643085 0 0 0 0 0.2375 0 0 0 0.5 0"/>
<feBlend mode="normal" in2="BackgroundImageFix" result="effect1_dropShadow_534_53"/>
<feBlend mode="normal" in="SourceGraphic" in2="effect1_dropShadow_534_53" result="shape"/>
</filter>
<linearGradient id="paint0_linear_534_53" x1="56" y1="177" x2="295.529" y2="243.844" gradientUnits="userSpaceOnUse">
<stop stop-color="#F8BC28"/>
<stop offset="0.9999" stop-color="#E38929"/>
<stop offset="1" stop-color="white" stop-opacity="0"/>
</linearGradient>
<linearGradient id="paint1_linear_534_53" x1="175.173" y1="9" x2="175.173" y2="127" gradientUnits="userSpaceOnUse">
<stop stop-color="#F7BA28"/>
<stop offset="1" stop-color="#E58D29"/>
</linearGradient>
<linearGradient id="paint2_linear_534_53" x1="267.695" y1="75.4085" x2="216.528" y2="69.7185" gradientUnits="userSpaceOnUse">
<stop stop-color="#F7B928"/>
<stop offset="1" stop-color="#E48D29"/>
</linearGradient>
</defs>
</svg>
