<svg width="281" height="337" viewBox="0 0 281 337" fill="none" xmlns="http://www.w3.org/2000/svg">
<path d="M225 116.417H198V107.252C198 91.8894 210.098 79.417 225 79.417H225V116.417V116.417Z" fill="#2F2E41"/>
<path d="M219.222 98.9039L224 120.417L196 115.763L207.41 95.417L219.222 98.9039Z" fill="#A0616A"/>
<path opacity="0.1" d="M219.222 98.9039L224 120.417L196 115.763L207.41 95.417L219.222 98.9039Z" fill="black"/>
<path d="M192 184.417H219V145.417H192V184.417Z" fill="#A0616A"/>
<path d="M237 217.417L230.95 248.99C230.95 248.99 234.8 270.931 223.25 293.406L215.55 316.417L204 314.812C204 314.812 211.15 297.687 211.15 290.195C211.15 282.703 212.8 253.806 212.8 253.806L211.975 220.832L237 217.417Z" fill="#143621"/>
<path d="M203.006 314.051C203.006 314.051 215.842 309.205 216.912 316.204L216.377 319.434C216.377 319.434 221.191 333.97 214.238 335.047C207.285 336.124 200.866 337.739 200.332 334.509C199.797 331.278 199.805 327.246 201.138 324.417C202.471 321.588 203.006 314.051 203.006 314.051Z" fill="#2F2E41"/>
<path d="M195.977 212.216L192.845 244.235C192.845 244.235 183.129 264.302 187.68 289.059L188.478 313.287L199.738 314.873C199.738 314.873 197.815 296.458 199.902 289.249C201.99 282.041 208.495 253.789 208.495 253.789L218.454 222.285L195.977 212.216V212.216Z" fill="#143621"/>
<path d="M201.432 314.805C201.432 314.805 190.416 306.593 187.448 312.989L187.069 316.227C187.069 316.227 178.41 328.788 184.805 331.756C191.201 334.724 196.932 338.057 198.342 335.117C199.751 332.177 200.86 328.318 200.36 325.24C199.86 322.163 201.432 314.805 201.432 314.805V314.805Z" fill="#143621"/>
<path d="M230.178 166.417C242.793 178.27 243.729 197.025 236.346 219.344C236.346 219.344 212.746 235.546 195.582 215.023L187 173.438L230.178 166.417Z" fill="#143621"/>
<path d="M209.043 109.48L222.257 111.606L221.2 145.088L236 174.851L216.972 184.417C216.972 184.417 202.172 156.249 199.529 138.711C196.886 121.172 198.472 108.417 198.472 108.417L209.043 109.48Z" fill="#198E36"/>
<path d="M198.694 110.48L185.165 112.606L186.247 146.088L183 176.913L190.576 185.417C190.576 185.417 205.729 157.249 208.435 139.711C211.14 122.172 209.517 109.417 209.517 109.417L198.694 110.48Z" fill="#198E36"/>
<path d="M214.706 111.405L217.635 110.612C217.635 110.612 228.02 109.291 229.618 113.519C231.216 117.746 230.683 142.583 230.683 142.583C230.683 142.583 233.431 173.066 222.737 173.413C212.043 173.761 214.173 148.396 214.173 148.396L214.706 111.405Z" fill="#198E36"/>
<path d="M214.5 105.417C221.956 105.417 228 99.149 228 91.417C228 83.685 221.956 77.417 214.5 77.417C207.044 77.417 201 83.685 201 91.417C201 99.149 207.044 105.417 214.5 105.417Z" fill="#A0616A"/>
<path d="M197.294 112.421L194.365 111.616C194.365 111.616 183.98 110.273 182.382 114.568C180.784 118.863 181.317 144.094 181.317 144.094C181.317 144.094 178.569 175.06 189.263 175.413C199.957 175.766 197.827 149.999 197.827 149.999L197.294 112.421Z" fill="#F8BC28"/>
<path d="M206.401 110.528C203.469 109.773 200.146 112.952 198.976 117.63C198.484 119.492 198.438 121.447 198.842 123.331L197.583 128.649L197.49 128.644L187.554 152.417C185.243 157.945 185.488 164.291 188.434 169.497C190.187 172.594 192.488 174.677 195.19 172.551C199.674 169.024 202.602 148.831 203.939 137.231L207.03 125.44C208.271 123.98 209.15 122.239 209.592 120.363C210.761 115.686 209.332 111.283 206.401 110.528V110.528Z" fill="#A0616A"/>
<path d="M187.512 102.114C188.221 99.9587 189.621 98.0721 190.247 95.8917C191.079 92.9966 192.849 99.4192 193.022 96.4121C193.35 90.6966 202.078 75.9944 207.06 73.1703C212.042 70.3462 214.904 71.1977 219.98 73.85C219.98 73.85 222.444 74.0066 225.512 75.5203C228.579 77.034 231.34 79.4583 232.533 82.6629C233.479 85.203 233.374 87.9925 233.69 90.6843C234.571 98.1836 238.777 105.316 237.874 112.812C237.592 115.151 236.703 117.57 234.789 118.945C232.876 120.321 229.785 120.171 228.526 118.18C228.096 117.501 227.914 116.695 227.546 115.98C227.178 115.265 226.512 114.599 225.708 114.621C224.5 114.655 223.885 116.275 224.361 117.386C224.838 118.496 225.957 119.167 227.009 119.763C224.505 120.889 221.398 120.539 219.209 118.883C217.019 117.227 215.836 114.335 216.239 111.62C216.807 107.794 222.383 108.586 223.04 104.775C223.518 102 225.197 97.3578 224.74 94.5798C224.283 91.8017 222.086 95.1654 224.4 93.5603C221.854 94.787 216.408 86.3949 213.743 85.4549C211.078 84.5149 208.818 82.4796 207.606 79.9275C204.779 84.0234 202.292 82.9112 201.28 87.7831C200.268 92.6551 201.204 103.724 205.372 106.444C203.704 107.581 202.374 109.208 201.591 111.069C201.148 112.123 200.86 113.277 200.124 114.152C198.719 115.825 196.123 115.926 194.054 115.223C191.489 114.352 189.295 112.437 188.086 110.013C186.876 107.59 186.666 104.686 187.512 102.114L187.512 102.114Z" fill="#17281E"/>
<path d="M0 335.917C0 336.194 0.283871 336.417 0.637366 336.417H280.363C280.716 336.417 281 336.194 281 335.917C281 335.64 280.716 335.417 280.363 335.417H0.637366C0.283871 335.417 0 335.64 0 335.917Z" fill="#3F3D56"/>
<path d="M181.988 0.535889H71.7386C59.2363 0.535889 49.1012 10.671 49.1012 23.1733V312.873C49.1012 325.376 59.2363 335.511 71.7386 335.511H181.988C194.49 335.511 204.625 325.376 204.625 312.873V23.1733C204.625 10.671 194.49 0.535889 181.988 0.535889H181.988Z" fill="white"/>
<path d="M181.988 336.047H71.7386C58.9608 336.047 48.5651 325.651 48.5651 312.873V23.1735C48.5651 10.3957 58.9607 0 71.7386 0H181.988C194.766 0 205.161 10.3957 205.161 23.1735V312.873C205.161 325.651 194.766 336.047 181.988 336.047H181.988ZM71.7386 1.0721C59.5518 1.0721 49.6372 10.9867 49.6372 23.1735V312.873C49.6372 325.06 59.5518 334.975 71.7386 334.975H181.988C194.175 334.975 204.089 325.06 204.089 312.873V23.1735C204.089 10.9867 194.175 1.0721 181.988 1.0721H71.7386Z" fill="#3F3D56"/>
<path d="M39.9908 50.6924C39.0229 50.6924 38.2358 51.4795 38.2358 52.4474V66.4873C38.2358 67.4552 39.0229 68.2423 39.9908 68.2423C40.9587 68.2423 41.7458 67.4552 41.7458 66.4873V52.4474C41.7458 51.4795 40.9587 50.6924 39.9908 50.6924Z" fill="#3F3D56"/>
<path d="M189.974 46.8837H145.66C143.78 46.8837 142.251 45.3545 142.251 43.475C142.251 41.5954 143.78 40.0662 145.66 40.0662H189.974C191.853 40.0662 193.383 41.5954 193.383 43.475C193.383 45.3545 191.853 46.8837 189.974 46.8837Z" fill="#E6E6E6"/>
<path d="M148.401 73.6903H105.326C104.24 73.6903 103.356 72.8066 103.356 71.7207C103.356 70.6347 104.24 69.7515 105.326 69.7515H148.401C149.487 69.7515 150.37 70.6347 150.37 71.7207C150.37 72.8066 149.487 73.6903 148.401 73.6903V73.6903Z" fill="#143621"/>
<path d="M41.6947 83.4105C60.9083 83.4105 76.484 68.163 76.484 49.3543C76.484 30.5456 60.9083 15.2981 41.6947 15.2981C22.4812 15.2981 6.90552 30.5456 6.90552 49.3543C6.90552 68.163 22.4812 83.4105 41.6947 83.4105Z" fill="#198E36"/>
<path d="M53.5023 32.1761C48.8707 40.6096 44.2392 49.0432 39.6076 57.4767C36.6558 52.2612 33.7201 47.0365 30.761 41.825C29.739 40.0252 26.9593 41.644 27.9838 43.4483C31.414 49.4896 34.8088 55.5509 38.239 61.5922C38.8255 62.6251 40.4357 62.6491 41.0162 61.5922C46.104 52.3279 51.1917 43.0636 56.2795 33.7994C57.2764 31.9841 54.5 30.3593 53.5023 32.1761H53.5023Z" fill="white"/>
<path d="M87.5181 7.85742H62.9253C62.8335 7.85742 62.759 7.93187 62.759 8.02371V10.8867C62.759 10.9785 62.8335 11.053 62.9253 11.053H87.5181C87.61 11.053 87.6844 10.9785 87.6844 10.8867V8.02371C87.6844 7.93187 87.61 7.85742 87.5181 7.85742Z" fill="#E6E6E6"/>
<path d="M170.355 11.0528C171.767 11.0528 172.911 9.90827 172.911 8.49639C172.911 7.0845 171.767 5.93994 170.355 5.93994C168.943 5.93994 167.798 7.0845 167.798 8.49639C167.798 9.90827 168.943 11.0528 170.355 11.0528Z" fill="#E6E6E6"/>
<path d="M177.385 11.0528C178.797 11.0528 179.941 9.90827 179.941 8.49639C179.941 7.0845 178.797 5.93994 177.385 5.93994C175.973 5.93994 174.828 7.0845 174.828 8.49639C174.828 9.90827 175.973 11.0528 177.385 11.0528Z" fill="#E6E6E6"/>
<path d="M184.415 11.0528C185.827 11.0528 186.972 9.90827 186.972 8.49639C186.972 7.0845 185.827 5.93994 184.415 5.93994C183.003 5.93994 181.859 7.0845 181.859 8.49639C181.859 9.90827 183.003 11.0528 184.415 11.0528Z" fill="#E6E6E6"/>
<path d="M71.4702 84.2329C71.4702 84.5867 71.7543 84.8708 72.1082 84.8708H181.618C181.972 84.8708 182.256 84.5867 182.256 84.2329C182.256 83.8791 181.972 83.595 181.618 83.595H72.1082C71.7543 83.595 71.4702 83.8791 71.4702 84.2329V84.2329Z" fill="#3F3D56"/>
<path d="M171.117 134.37H105.398C104.312 134.37 103.428 133.487 103.428 132.401C103.428 131.315 104.312 130.431 105.398 130.431H171.117C172.203 130.431 173.086 131.315 173.086 132.401C173.086 133.487 172.203 134.37 171.117 134.37Z" fill="#198E36"/>
<path d="M171.117 162.781H105.398C104.312 162.781 103.428 161.897 103.428 160.811C103.428 159.726 104.312 158.842 105.398 158.842H171.117C172.203 158.842 173.086 159.726 173.086 160.811C173.086 161.897 172.203 162.781 171.117 162.781V162.781Z" fill="#198E36"/>
<path d="M171.117 191.192H105.398C104.312 191.192 103.428 190.308 103.428 189.222C103.428 188.136 104.312 187.253 105.398 187.253H171.117C172.203 187.253 173.086 188.136 173.086 189.222C173.086 190.308 172.203 191.192 171.117 191.192V191.192Z" fill="#198E36"/>
<path d="M85.465 136.982C88.1294 136.982 90.2894 134.822 90.2894 132.157C90.2894 129.493 88.1294 127.333 85.465 127.333C82.8005 127.333 80.6405 129.493 80.6405 132.157C80.6405 134.822 82.8005 136.982 85.465 136.982Z" fill="#1F7A35"/>
<path d="M84.9288 140.198V139.126C88.9191 139.126 92.1655 135.88 92.1655 131.889C92.1655 127.899 88.9191 124.653 84.9288 124.653V123.581C89.5104 123.581 93.2376 127.308 93.2376 131.889C93.2376 136.471 89.5104 140.198 84.9288 140.198Z" fill="#143621"/>
<path d="M85.465 165.393C88.1294 165.393 90.2894 163.233 90.2894 160.568C90.2894 157.904 88.1294 155.744 85.465 155.744C82.8005 155.744 80.6405 157.904 80.6405 160.568C80.6405 163.233 82.8005 165.393 85.465 165.393Z" fill="#1F7A35"/>
<path d="M84.9288 168.609V167.537C88.9191 167.537 92.1655 164.291 92.1655 160.3C92.1655 156.31 88.9191 153.064 84.9288 153.064V151.991C89.5104 151.991 93.2376 155.719 93.2376 160.3C93.2376 164.882 89.5104 168.609 84.9288 168.609Z" fill="#143621"/>
<path d="M85.465 193.803C88.1294 193.803 90.2894 191.643 90.2894 188.979C90.2894 186.315 88.1294 184.155 85.465 184.155C82.8005 184.155 80.6405 186.315 80.6405 188.979C80.6405 191.643 82.8005 193.803 85.465 193.803Z" fill="#1F7A35"/>
<path d="M84.9288 197.02V195.948C88.9191 195.948 92.1655 192.701 92.1655 188.711C92.1655 184.72 88.9191 181.474 84.9288 181.474V180.402C89.5104 180.402 93.2376 184.129 93.2376 188.711C93.2376 193.292 89.5104 197.02 84.9288 197.02Z" fill="#143621"/>
<path d="M205.599 109.528C208.531 108.773 211.854 111.952 213.024 116.63C213.516 118.492 213.562 120.447 213.158 122.331L214.417 127.649L214.51 127.644L224.446 151.417C226.757 156.945 226.512 163.291 223.566 168.497C221.813 171.594 219.512 173.677 216.81 171.551C212.326 168.024 209.398 147.831 208.061 136.231L204.969 124.44C203.729 122.98 202.85 121.239 202.408 119.363C201.239 114.686 202.668 110.283 205.599 109.528V109.528Z" fill="#A0616A"/>
<path d="M217.105 122.417L206 130.483L211.552 166.214L218.516 175.417L226.628 172.55L229 155.659L226.209 139.325L217.105 122.417Z" fill="#1F7A35"/>
</svg>
