<svg width="317" height="232" viewBox="0 0 317 232" fill="none" xmlns="http://www.w3.org/2000/svg">
<path d="M185 42C191.075 42 196 37.0751 196 31C196 24.9249 191.075 20 185 20C178.925 20 174 24.9249 174 31C174 37.0751 178.925 42 185 42Z" fill="#F2F2F2"/>
<path d="M268.663 201.241C284.716 189.054 292.383 168.574 287.583 149.038C287.464 148.553 287.338 148.068 287.206 147.585C284.023 135.989 276.15 124.967 264.676 121.262C255.041 118.151 244.524 120.543 234.473 119.306C214.742 116.877 199.444 100.965 188.681 84.3036C177.917 67.6426 169.645 48.9931 155.342 35.2287C131.767 12.5405 93.3097 7.65572 64.0797 22.4241C34.8496 37.1924 16.2304 69.9573 17.0244 102.612C17.8185 135.266 37.2675 166.486 65.5121 183.05C75.8881 189.135 87.8888 193.445 99.8321 191.937C110.195 190.628 119.611 185.078 129.925 183.43C146.142 180.84 162.255 188.148 176.28 196.664C190.306 205.18 203.854 215.274 219.793 219.222C235.269 223.055 254.442 212.037 268.663 201.241Z" fill="#F2F2F2"/>
<path d="M244.886 22.4098C244.536 22.1748 244.182 21.952 243.832 21.7252C233.706 15.2096 222.854 9.91634 211.499 5.95488L208.866 42.5025H192.174V0.619793C191.123 0.401043 190.064 0.194445 189.005 0V42.5025H169.169C158.249 42.5025 147.776 38.1376 140.054 30.3682C132.333 22.5988 127.995 12.0612 127.995 1.07355V1.07351C126.932 1.30441 125.877 1.55152 124.822 1.81483V42.5025H108.666L106.158 7.65223C94.4881 12.1554 83.4095 18.0772 73.1685 25.286C72.9913 25.4075 72.8142 25.5331 72.6411 25.6546C71.7513 26.2825 70.8736 26.9226 70 27.5707V167H117.616L116.774 155.273L112.144 90.8828H205.383L200.753 155.273L199.912 167H247V23.8195C246.299 23.3415 245.595 22.8716 244.886 22.4098ZM124.822 80.2491H111.379L108.895 45.6946H124.822V80.2491ZM189.005 80.2491H166.427V79.5645C166.427 79.2354 166.363 78.9095 166.238 78.6055C166.112 78.3015 165.929 78.0254 165.697 77.7928C165.466 77.5603 165.191 77.376 164.889 77.2504C164.586 77.1248 164.262 77.0605 163.935 77.061H154.12C153.793 77.0609 153.469 77.1256 153.167 77.2513C152.865 77.3771 152.591 77.5615 152.36 77.794C152.129 78.0265 151.946 78.3025 151.821 78.6063C151.696 78.9101 151.631 79.2357 151.632 79.5645V80.2491H127.995V45.6946H189.005V80.2491ZM192.174 80.2491V45.6946H208.636L206.152 80.2491H192.174Z" fill="#194429"/>
<path d="M0 176C3.49999 180.124 7.28562 184 11.3292 187.599L305.671 188C309.714 184.401 313.5 180.525 317 176.401L0 176Z" fill="#173A24"/>
<path d="M199 138.621V172.378C199 172.808 199.177 173.22 199.491 173.524C199.805 173.829 200.231 174 200.675 174H252.325C252.769 174 253.195 173.829 253.509 173.524C253.823 173.22 254 172.808 254 172.378V138.621C253.999 138.191 253.822 137.779 253.508 137.475C253.194 137.171 252.769 137.001 252.325 137H200.675C200.231 137.001 199.806 137.171 199.492 137.475C199.178 137.779 199.001 138.191 199 138.621V138.621Z" fill="#1F7A35"/>
<path d="M201 138.903V173.099C201 173.338 201.094 173.567 201.26 173.736C201.426 173.905 201.651 174 201.885 174H252.115C252.349 174 252.574 173.905 252.74 173.736C252.906 173.567 253 173.338 253 173.099V138.903C253 138.664 252.907 138.434 252.741 138.265C252.575 138.096 252.35 138.001 252.115 138H201.885C201.65 138.001 201.425 138.096 201.259 138.265C201.093 138.434 201 138.664 201 138.903V138.903Z" fill="#143621"/>
<path d="M199.223 179.629C199.316 179.745 199.433 179.839 199.567 179.903C199.701 179.968 199.847 180.001 199.995 180H254.007C254.155 180 254.301 179.967 254.434 179.903C254.568 179.839 254.685 179.746 254.778 179.63C254.871 179.515 254.937 179.38 254.972 179.236C255.007 179.092 255.009 178.941 254.979 178.796L254.14 174.793C254.106 174.629 254.031 174.477 253.923 174.351C253.815 174.224 253.677 174.126 253.522 174.067C253.409 174.023 253.29 174 253.169 174H200.83C200.71 174 200.59 174.023 200.478 174.067C200.323 174.126 200.185 174.224 200.077 174.351C199.968 174.477 199.894 174.629 199.859 174.793L199.021 178.796C198.991 178.941 198.993 179.091 199.029 179.235C199.064 179.379 199.13 179.514 199.223 179.629V179.629Z" fill="#194429"/>
<path d="M251.233 176H252.767C252.896 176 253 175.826 253 175.612V174.388C253 174.174 252.896 174 252.767 174H251.233C251.104 174 251 174.174 251 174.388V175.612C251 175.826 251.104 176 251.233 176Z" fill="#1F7A35"/>
<path d="M248.233 176H249.767C249.896 176 250 175.826 250 175.612V174.388C250 174.174 249.896 174 249.767 174H248.233C248.104 174 248 174.174 248 174.388V175.612C248 175.826 248.104 176 248.233 176Z" fill="#1F7A35"/>
<path d="M245.117 176H245.883C245.948 176 246 175.826 246 175.612V174.388C246 174.174 245.948 174 245.883 174H245.117C245.052 174 245 174.174 245 174.388V175.612C245 175.826 245.052 176 245.117 176Z" fill="#1F7A35"/>
<path d="M241.233 176H242.767C242.896 176 243 175.826 243 175.612V174.388C243 174.174 242.896 174 242.767 174H241.233C241.104 174 241 174.174 241 174.388V175.612C241 175.826 241.104 176 241.233 176Z" fill="#1F7A35"/>
<path d="M238.233 176H239.767C239.896 176 240 175.826 240 175.612V174.388C240 174.174 239.896 174 239.767 174H238.233C238.104 174 238 174.174 238 174.388V175.612C238 175.826 238.104 176 238.233 176Z" fill="#1F7A35"/>
<path d="M235.117 176H235.883C235.948 176 236 175.826 236 175.612V174.388C236 174.174 235.948 174 235.883 174H235.117C235.052 174 235 174.174 235 174.388V175.612C235 175.826 235.052 176 235.117 176Z" fill="#1F7A35"/>
<path d="M231.233 176H232.767C232.896 176 233 175.826 233 175.612V174.388C233 174.174 232.896 174 232.767 174H231.233C231.104 174 231 174.174 231 174.388V175.612C231 175.826 231.104 176 231.233 176Z" fill="#3F3D56"/>
<path d="M227.35 176H229.65C229.843 176 230 175.826 230 175.612V174.388C230 174.174 229.843 174 229.65 174H227.35C227.157 174 227 174.174 227 174.388V175.612C227 175.826 227.157 176 227.35 176Z" fill="#3F3D56"/>
<path d="M224.233 176H225.767C225.896 176 226 175.826 226 175.612V174.388C226 174.174 225.896 174 225.767 174H224.233C224.104 174 224 174.174 224 174.388V175.612C224 175.826 224.104 176 224.233 176Z" fill="#3F3D56"/>
<path d="M221.117 176H221.883C221.948 176 222 175.826 222 175.612V174.388C222 174.174 221.948 174 221.883 174H221.117C221.052 174 221 174.174 221 174.388V175.612C221 175.826 221.052 176 221.117 176Z" fill="#3F3D56"/>
<path d="M217.233 176H218.767C218.896 176 219 175.826 219 175.612V174.388C219 174.174 218.896 174 218.767 174H217.233C217.104 174 217 174.174 217 174.388V175.612C217 175.826 217.104 176 217.233 176Z" fill="#3F3D56"/>
<path d="M214.233 176H215.767C215.896 176 216 175.826 216 175.612V174.388C216 174.174 215.896 174 215.767 174H214.233C214.104 174 214 174.174 214 174.388V175.612C214 175.826 214.104 176 214.233 176Z" fill="#1F7A35"/>
<path d="M211.117 176H211.883C211.948 176 212 175.826 212 175.612V174.388C212 174.174 211.948 174 211.883 174H211.117C211.052 174 211 174.174 211 174.388V175.612C211 175.826 211.052 176 211.117 176Z" fill="#1F7A35"/>
<path d="M207.233 176H208.767C208.896 176 209 175.826 209 175.612V174.388C209 174.174 208.896 174 208.767 174H207.233C207.104 174 207 174.174 207 174.388V175.612C207 175.826 207.104 176 207.233 176Z" fill="#1F7A35"/>
<path d="M204.233 176H205.767C205.896 176 206 175.826 206 175.612V174.388C206 174.174 205.896 174 205.767 174H204.233C204.104 174 204 174.174 204 174.388V175.612C204 175.826 204.104 176 204.233 176Z" fill="#1F7A35"/>
<path d="M201.117 176H201.883C201.948 176 202 175.826 202 175.612V174.388C202 174.174 201.948 174 201.883 174H201.117C201.052 174 201 174.174 201 174.388V175.612C201 175.826 201.052 176 201.117 176Z" fill="#3F3D56"/>
<path d="M223.204 180H236.796C236.909 180 237 179.913 237 179.806V179.194C237 179.087 236.909 179 236.796 179H223.204C223.091 179 223 179.087 223 179.194V179.806C223 179.913 223.091 180 223.204 180Z" fill="#1F7A35"/>
<path d="M213.477 148H212.523C212.234 148 212 148.224 212 148.5C212 148.776 212.234 149 212.523 149H213.477C213.766 149 214 148.776 214 148.5C214 148.224 213.766 148 213.477 148Z" fill="white"/>
<path d="M226.477 148H225.523C225.234 148 225 148.224 225 148.5C225 148.776 225.234 149 225.523 149H226.477C226.766 149 227 148.776 227 148.5C227 148.224 226.766 148 226.477 148Z" fill="white"/>
<path d="M229.477 148H228.523C228.234 148 228 148.224 228 148.5C228 148.776 228.234 149 228.523 149H229.477C229.766 149 230 148.776 230 148.5C230 148.224 229.766 148 229.477 148Z" fill="white"/>
<path d="M222.324 148H214.676C214.302 148 214 148.224 214 148.5C214 148.776 214.302 149 214.676 149H222.324C222.698 149 223 148.776 223 148.5C223 148.224 222.698 148 222.324 148Z" fill="white"/>
<path d="M239.475 148H233.525C233.235 148 233 148.224 233 148.5C233 148.776 233.235 149 233.525 149H239.475C239.765 149 240 148.776 240 148.5C240 148.224 239.765 148 239.475 148Z" fill="white"/>
<path d="M216.215 151H214.785C214.351 151 214 151.224 214 151.5C214 151.776 214.351 152 214.785 152H216.215C216.649 152 217 151.776 217 151.5C217 151.224 216.649 151 216.215 151Z" fill="white"/>
<path d="M229.477 151H228.523C228.234 151 228 151.224 228 151.5C228 151.776 228.234 152 228.523 152H229.477C229.766 152 230 151.776 230 151.5C230 151.224 229.766 151 229.477 151Z" fill="white"/>
<path d="M233.477 151H232.523C232.234 151 232 151.224 232 151.5C232 151.776 232.234 152 232.523 152H233.477C233.766 152 234 151.776 234 151.5C234 151.224 233.766 151 233.477 151Z" fill="white"/>
<path d="M226.324 151H218.676C218.302 151 218 151.224 218 151.5C218 151.776 218.302 152 218.676 152H226.324C226.698 152 227 151.776 227 151.5C227 151.224 226.698 151 226.324 151Z" fill="white"/>
<path d="M243.399 151H236.601C236.269 151 236 151.224 236 151.5C236 151.776 236.269 152 236.601 152H243.399C243.731 152 244 151.776 244 151.5C244 151.224 243.731 151 243.399 151Z" fill="white"/>
<path d="M220.215 154H218.785C218.351 154 218 154.224 218 154.5C218 154.776 218.351 155 218.785 155H220.215C220.649 155 221 154.776 221 154.5C221 154.224 220.649 154 220.215 154Z" fill="white"/>
<path d="M233.215 154H231.785C231.351 154 231 154.224 231 154.5C231 154.776 231.351 155 231.785 155H233.215C233.649 155 234 154.776 234 154.5C234 154.224 233.649 154 233.215 154Z" fill="white"/>
<path d="M237.215 154H235.785C235.351 154 235 154.224 235 154.5C235 154.776 235.351 155 235.785 155H237.215C237.649 155 238 154.776 238 154.5C238 154.224 237.649 154 237.215 154Z" fill="white"/>
<path d="M229.399 154H222.601C222.269 154 222 154.224 222 154.5C222 154.776 222.269 155 222.601 155H229.399C229.731 155 230 154.776 230 154.5C230 154.224 229.731 154 229.399 154Z" fill="white"/>
<path d="M222.477 165H221.523C221.234 165 221 165.448 221 166C221 166.552 221.234 167 221.523 167H222.477C222.766 167 223 166.552 223 166C223 165.448 222.766 165 222.477 165Z" fill="white"/>
<path d="M226.477 165H225.523C225.234 165 225 165.448 225 166C225 166.552 225.234 167 225.523 167H226.477C226.766 167 227 166.552 227 166C227 165.448 226.766 165 226.477 165Z" fill="white"/>
<path d="M236.399 165H229.601C229.269 165 229 165.448 229 166C229 166.552 229.269 167 229.601 167H236.399C236.731 167 237 166.552 237 166C237 165.448 236.731 165 236.399 165Z" fill="white"/>
<path d="M209.477 165H208.523C208.234 165 208 165.448 208 166C208 166.552 208.234 167 208.523 167H209.477C209.766 167 210 166.552 210 166C210 165.448 209.766 165 209.477 165Z" fill="white"/>
<path d="M219.399 165H212.601C212.269 165 212 165.448 212 166C212 166.552 212.269 167 212.601 167H219.399C219.731 167 220 166.552 220 166C220 165.448 219.731 165 219.399 165Z" fill="white"/>
<path d="M213.477 162H212.523C212.234 162 212 162.448 212 163C212 163.552 212.234 164 212.523 164H213.477C213.766 164 214 163.552 214 163C214 162.448 213.766 162 213.477 162Z" fill="white"/>
<path d="M226.477 162H225.523C225.234 162 225 162.448 225 163C225 163.552 225.234 164 225.523 164H226.477C226.766 164 227 163.552 227 163C227 162.448 226.766 162 226.477 162Z" fill="white"/>
<path d="M229.477 162H228.523C228.234 162 228 162.448 228 163C228 163.552 228.234 164 228.523 164H229.477C229.766 164 230 163.552 230 163C230 162.448 229.766 162 229.477 162Z" fill="white"/>
<path d="M222.324 162H214.676C214.302 162 214 162.448 214 163C214 163.552 214.302 164 214.676 164H222.324C222.698 164 223 163.552 223 163C223 162.448 222.698 162 222.324 162Z" fill="white"/>
<path d="M216.215 159H214.785C214.351 159 214 159.448 214 160C214 160.552 214.351 161 214.785 161H216.215C216.649 161 217 160.552 217 160C217 159.448 216.649 159 216.215 159Z" fill="white"/>
<path d="M229.477 159H228.523C228.234 159 228 159.448 228 160C228 160.552 228.234 161 228.523 161H229.477C229.766 161 230 160.552 230 160C230 159.448 229.766 159 229.477 159Z" fill="white"/>
<path d="M233.477 159H232.523C232.234 159 232 159.448 232 160C232 160.552 232.234 161 232.523 161H233.477C233.766 161 234 160.552 234 160C234 159.448 233.766 159 233.477 159Z" fill="white"/>
<path d="M226.324 159H218.676C218.302 159 218 159.448 218 160C218 160.552 218.302 161 218.676 161H226.324C226.698 161 227 160.552 227 160C227 159.448 226.698 159 226.324 159Z" fill="white"/>
<path d="M220.215 156H218.785C218.351 156 218 156.448 218 157C218 157.552 218.351 158 218.785 158H220.215C220.649 158 221 157.552 221 157C221 156.448 220.649 156 220.215 156Z" fill="white"/>
<path d="M233.215 156H231.785C231.351 156 231 156.448 231 157C231 157.552 231.351 158 231.785 158H233.215C233.649 158 234 157.552 234 157C234 156.448 233.649 156 233.215 156Z" fill="white"/>
<path d="M237.215 156H235.785C235.351 156 235 156.448 235 157C235 157.552 235.351 158 235.785 158H237.215C237.649 158 238 157.552 238 157C238 156.448 237.649 156 237.215 156Z" fill="white"/>
<path d="M229.399 156H222.601C222.269 156 222 156.448 222 157C222 157.552 222.269 158 222.601 158H229.399C229.731 158 230 157.552 230 157C230 156.448 229.731 156 229.399 156Z" fill="white"/>
<path d="M203.335 198L198 189.822L214.746 176.876L221.658 169.45C222.556 168.486 223.699 167.766 224.974 167.364C226.248 166.962 227.609 166.892 228.921 167.159C230.232 167.427 231.448 168.024 232.447 168.891C233.446 169.757 234.193 170.862 234.613 172.097C235.236 173.925 235.102 175.917 234.24 177.652C233.377 179.387 231.853 180.729 229.99 181.394L219.06 185.299L203.335 198Z" fill="#FFB6B6"/>
<path d="M77 136.403V178H106V136.403C106 136.104 105.905 135.813 105.729 135.572C105.552 135.331 105.304 135.153 105.019 135.065C104.885 135.02 104.745 134.999 104.603 135H78.4006C78.2169 135 78.0349 135.036 77.8651 135.106C77.6953 135.176 77.5409 135.28 77.4108 135.41C77.2808 135.54 77.1775 135.695 77.107 135.866C77.0365 136.036 77.0002 136.219 77 136.403V136.403ZM88.3175 150.696C88.325 149.876 88.6545 149.092 89.2343 148.515C89.814 147.938 90.5971 147.614 91.4132 147.614C92.2293 147.614 93.0124 147.938 93.5922 148.515C94.1719 149.092 94.5014 149.876 94.509 150.696V155.523C94.5048 156.345 94.1768 157.132 93.5967 157.712C93.0166 158.292 92.2315 158.618 91.4132 158.618C90.5949 158.618 89.8099 158.292 89.2298 157.712C88.6496 157.132 88.3216 156.345 88.3175 155.523V150.696Z" fill="#173A24"/>
<path d="M77 177V181.18C77.0006 181.397 77.0823 181.604 77.2272 181.758C77.3722 181.911 77.5687 181.998 77.7742 182H105.226C105.431 181.999 105.628 181.912 105.774 181.758C105.919 181.605 106 181.397 106 181.18V177H77Z" fill="#3F3D56"/>
<path d="M32 74.6354V150.361C32.0008 151.326 32.3829 152.251 33.0624 152.933C33.7419 153.616 34.6634 153.999 35.6244 154H147.376C148.337 153.999 149.258 153.616 149.938 152.933C150.617 152.251 150.999 151.326 151 150.361V74.6354C150.998 73.6712 150.615 72.7473 149.936 72.0659C149.256 71.3845 148.336 71.0012 147.376 71H35.6244C34.6642 71.0012 33.7436 71.3845 33.0643 72.0659C32.385 72.7473 32.0023 73.6713 32 74.6354Z" fill="#143621"/>
<path d="M34 74.9556V149.048C34.0009 149.566 34.2057 150.062 34.5695 150.427C34.9333 150.793 35.4266 150.999 35.9411 151H146.059C146.573 150.999 147.067 150.793 147.43 150.427C147.794 150.062 147.999 149.566 148 149.048V74.9556C148 74.4376 147.796 73.9409 147.432 73.5743C147.068 73.2077 146.574 73.0011 146.059 73H35.9411C35.4259 73.0011 34.9322 73.2077 34.5683 73.5743C34.2044 73.9409 34.0001 74.4376 34 74.9556Z" fill="#E48B29"/>
<path d="M54.2713 181.505C54.3836 181.66 54.5262 181.786 54.6885 181.871C54.8509 181.957 55.0287 182.001 55.2086 182H120.795C120.974 182 121.151 181.955 121.313 181.87C121.475 181.785 121.617 181.661 121.73 181.507C121.843 181.353 121.924 181.174 121.966 180.981C122.008 180.789 122.011 180.588 121.974 180.395L120.956 175.057C120.914 174.839 120.823 174.637 120.692 174.468C120.561 174.299 120.393 174.168 120.205 174.089C120.068 174.03 119.923 174 119.777 174H56.2227C56.0761 174 55.9309 174.03 55.7944 174.089C55.606 174.168 55.4385 174.299 55.3073 174.468C55.176 174.637 55.0852 174.839 55.043 175.057L54.0249 180.395C53.9887 180.588 53.992 180.788 54.0346 180.98C54.0773 181.173 54.1581 181.352 54.2713 181.505Z" fill="#173A24"/>
<path d="M142.599 84H39.4014C39.2941 83.9971 39.192 83.9432 39.117 83.8497C39.042 83.7563 39 83.6307 39 83.5C39 83.3693 39.042 83.2438 39.117 83.1503C39.192 83.0569 39.2941 83.0029 39.4014 83H142.599C142.706 83.0029 142.808 83.0569 142.883 83.1503C142.958 83.2438 143 83.3693 143 83.5C143 83.6307 142.958 83.7563 142.883 83.8497C142.808 83.9432 142.706 83.9971 142.599 84V84Z" fill="#143621"/>
<path d="M46.5 81C47.8807 81 49 79.8807 49 78.5C49 77.1193 47.8807 76 46.5 76C45.1193 76 44 77.1193 44 78.5C44 79.8807 45.1193 81 46.5 81Z" fill="#143621"/>
<path d="M55 81C56.1046 81 57 79.8807 57 78.5C57 77.1193 56.1046 76 55 76C53.8954 76 53 77.1193 53 78.5C53 79.8807 53.8954 81 55 81Z" fill="#143621"/>
<path d="M63.5 81C64.8807 81 66 79.8807 66 78.5C66 77.1193 64.8807 76 63.5 76C62.1193 76 61 77.1193 61 78.5C61 79.8807 62.1193 81 63.5 81Z" fill="#143621"/>
<path d="M137.545 76H131.451C131.33 76.003 131.216 76.0571 131.131 76.1505C131.047 76.2439 131 76.3694 131 76.5C131 76.6306 131.047 76.7561 131.131 76.8495C131.216 76.9429 131.33 76.997 131.451 77H137.545C137.666 76.9981 137.782 76.9447 137.867 76.8511C137.952 76.7575 138 76.6314 138 76.5C138 76.3686 137.952 76.2425 137.867 76.1489C137.782 76.0553 137.666 76.0019 137.545 76Z" fill="#143621"/>
<path d="M137.544 78H131.451C131.331 78.0029 131.216 78.0568 131.132 78.1503C131.047 78.2438 131 78.3693 131 78.5C131 78.6307 131.047 78.7563 131.132 78.8497C131.216 78.9432 131.331 78.9971 131.451 79H137.544C137.666 78.9984 137.782 78.945 137.867 78.8514C137.952 78.7578 138 78.6316 138 78.5C138 78.3684 137.952 78.2422 137.867 78.1486C137.782 78.055 137.666 78.0016 137.544 78V78Z" fill="#143621"/>
<path d="M137.545 80H131.451C131.33 80.003 131.216 80.0571 131.131 80.1505C131.047 80.2439 131 80.3694 131 80.5C131 80.6306 131.047 80.7561 131.131 80.8495C131.216 80.9429 131.33 80.997 131.451 81H137.545C137.666 80.9981 137.782 80.9447 137.867 80.8511C137.952 80.7575 138 80.6314 138 80.5C138 80.3686 137.952 80.2425 137.867 80.1489C137.782 80.0553 137.666 80.0019 137.545 80V80Z" fill="#143621"/>
<path d="M279.917 178.288C280.091 178.795 280.42 179.234 280.858 179.541C281.295 179.849 281.819 180.009 282.353 180L292.788 179.73C293.326 179.72 293.846 179.535 294.271 179.203C294.696 178.871 295.002 178.411 295.144 177.89L296.621 162.049C297.144 162.287 297.715 162.405 298.29 162.393C298.79 162.38 299.282 162.269 299.739 162.066C300.195 161.862 300.608 161.571 300.952 161.207C301.296 160.844 301.566 160.416 301.746 159.948C301.925 159.481 302.011 158.982 301.999 158.481C301.986 157.979 301.875 157.486 301.673 157.027C301.47 156.569 301.179 156.155 300.817 155.81C300.455 155.464 300.028 155.194 299.562 155.014C299.096 154.833 298.598 154.747 298.099 154.76C297.869 154.759 297.64 154.783 297.415 154.831C297.171 154.566 296.873 154.355 296.543 154.212C296.212 154.069 295.855 153.997 295.495 154L279.444 154.416C279.31 154.421 279.178 154.437 279.048 154.465C278.696 154.531 278.362 154.672 278.068 154.878C277.775 155.084 277.529 155.351 277.347 155.66C277.166 155.97 277.052 156.315 277.014 156.672C276.976 157.029 277.015 157.39 277.128 157.731L279.917 178.288ZM296.923 160.973L297.974 157.198C298.094 156.762 298.096 156.302 297.982 155.865C298.033 155.865 298.078 155.841 298.129 155.84C298.85 155.825 299.547 156.098 300.067 156.598C300.588 157.097 300.89 157.784 300.907 158.507C300.924 159.229 300.654 159.929 300.157 160.453C299.661 160.977 298.977 161.282 298.257 161.3C297.791 161.315 297.33 161.202 296.923 160.973Z" fill="#198E36"/>
<path d="M279 154.389C279.339 156.026 283.144 157.178 287.721 156.977C291.929 156.813 295.37 155.563 296 154.082C295.767 154.023 295.524 153.996 295.281 154.001L279.392 154.348C279.26 154.352 279.129 154.366 279 154.389V154.389Z" fill="#173A24"/>
<path d="M288.366 168.996C288.389 168.993 288.411 168.988 288.43 168.981L290.903 168.114C290.933 168.103 290.957 168.089 290.974 168.072C290.991 168.055 291 168.037 291 168.018C291 167.998 290.991 167.98 290.974 167.963C290.957 167.946 290.933 167.932 290.903 167.921L288.333 167.019C288.31 167.011 288.283 167.005 288.255 167.002C288.228 166.999 288.199 166.999 288.171 167.002C288.144 167.005 288.117 167.011 288.094 167.02C288.071 167.028 288.051 167.039 288.035 167.052C288.02 167.065 288.009 167.079 288.004 167.094C287.998 167.109 287.999 167.124 288.005 167.139C288.01 167.154 288.022 167.168 288.038 167.18C288.054 167.193 288.074 167.203 288.098 167.212L290.393 168.017L288.195 168.788C288.153 168.803 288.121 168.826 288.107 168.852C288.092 168.878 288.096 168.906 288.116 168.931C288.137 168.956 288.173 168.976 288.219 168.988C288.264 169 288.316 169.003 288.366 168.996H288.366Z" fill="#F2F2F2"/>
<path d="M284.837 169.995C284.879 169.986 284.917 169.968 284.945 169.942C284.974 169.917 284.992 169.885 284.998 169.851C285.004 169.817 284.997 169.782 284.978 169.751C284.959 169.72 284.929 169.694 284.892 169.677L282.608 168.627L284.815 167.311C284.838 167.298 284.857 167.281 284.872 167.261C284.886 167.242 284.896 167.22 284.9 167.198C284.904 167.175 284.903 167.153 284.896 167.131C284.889 167.109 284.877 167.088 284.86 167.07C284.843 167.051 284.822 167.036 284.797 167.024C284.773 167.013 284.746 167.005 284.718 167.002C284.69 166.999 284.662 167 284.635 167.005C284.607 167.011 284.581 167.021 284.559 167.034L282.087 168.507C282.058 168.524 282.035 168.547 282.02 168.573C282.005 168.599 281.998 168.627 282 168.656C282.002 168.684 282.013 168.712 282.032 168.737C282.051 168.761 282.077 168.781 282.108 168.795L284.677 169.977C284.726 169.999 284.783 170.006 284.837 169.995V169.995Z" fill="#F2F2F2"/>
<path d="M287.876 170.994C287.892 170.989 287.907 170.98 287.921 170.97C287.94 170.955 287.956 170.937 287.968 170.915C287.981 170.893 287.99 170.867 287.995 170.841C288 170.814 288.001 170.787 287.998 170.76C287.995 170.733 287.987 170.707 287.976 170.683L285.304 165.1C285.281 165.053 285.245 165.019 285.202 165.006C285.16 164.993 285.116 165.002 285.079 165.03C285.042 165.059 285.015 165.105 285.005 165.159C284.994 165.213 285.001 165.269 285.024 165.316L287.696 170.9C287.714 170.938 287.742 170.968 287.774 170.985C287.807 171.001 287.842 171.005 287.876 170.994Z" fill="#F2F2F2"/>
<path d="M103.648 106H85.3515C84.6051 106 84 106.539 84 107.204V108.796C84 109.461 84.6051 110 85.3515 110H103.648C104.395 110 105 109.461 105 108.796V107.204C105 106.539 104.395 106 103.648 106Z" fill="#17281E"/>
<path d="M113.691 115H75.309C74.5861 115 74 115.539 74 116.204V117.796C74 118.461 74.5861 119 75.309 119H113.691C114.414 119 115 118.461 115 117.796V116.204C115 115.539 114.414 115 113.691 115Z" fill="#17281E"/>
<path d="M113.691 123H75.309C74.5861 123 74 123.674 74 124.505V126.495C74 127.326 74.5861 128 75.309 128H113.691C114.414 128 115 127.326 115 126.495V124.505C115 123.674 114.414 123 113.691 123Z" fill="#17281E"/>
<path d="M117 152.579L117.087 152.857L117.092 152.867L119.712 160.929L122.727 170.221L128.399 187.681L128.454 190.394V190.403L128.875 212.222L127.707 215.18L129.022 220.029C129.022 220.029 128.417 212.699 125.173 216.909C123.336 219.301 121.188 221.749 119.424 224.044C121.994 225.096 124.605 226.048 127.258 226.9C127.831 227.085 128.408 227.262 128.985 227.438C129.109 227.475 129.233 227.512 129.356 227.549C138.15 230.181 147.24 231.659 156.406 231.949C156.882 231.963 157.35 231.972 157.803 231.981C157.964 231.986 158.119 231.991 158.275 231.991C158.788 231.995 159.297 232 159.81 232C160.845 232 161.876 231.985 162.902 231.954C170.498 231.737 178.05 230.703 185.43 228.87C185.379 225.787 185.242 222.185 185.045 218.337C184.953 216.45 182.896 214.405 182.772 212.43C182.685 210.946 184.532 209.551 184.436 208.044C183.812 198.766 183.034 202.328 182.456 195.758C182.397 195.113 182.342 194.497 182.291 193.908C181.92 189.689 181.664 187.051 181.664 187.051L184.129 171.329L188 146.645L187.702 146.149L187.368 145.982L166.948 135.754L165.839 132.879C165.516 132.051 164.956 131.34 164.23 130.837C163.504 130.333 162.646 130.061 161.766 130.056L148.315 130C147.617 129.997 146.928 130.162 146.306 130.482C145.683 130.802 145.145 131.268 144.737 131.841L141.094 136.945L117 152.579Z" fill="#198E36"/>
<path d="M131 183.997L128.013 190.598L125.974 195.107L122.466 214.075L120.71 216L119.205 209.185L103.457 212.796C102.941 209.832 103.319 212.897 103 209.645C103.09 209.552 103.184 209.459 103.278 209.366C103.53 209.125 103.741 208.898 103.737 208.68C103.557 197.463 104.096 178.374 108.596 166.81C109.301 164.922 110.231 163.131 111.363 161.48C111.453 161.355 111.538 161.229 111.624 161.104C113.699 158.103 115.01 155.148 116.87 153.046V153.042C116.881 153.032 116.892 153.021 116.901 153.009C116.908 153.006 116.914 153.001 116.919 152.995L129.693 146L130.241 161.902L130.632 173.332L131 183.997Z" fill="#1F7A35"/>
<path d="M179 185.585L182.728 193.803L184.03 196.666L187.534 215.573L189.283 217.487L190.79 210.695L191.498 210.545L204.269 207.82L207.991 220C208.83 218.56 209.161 216.865 208.927 215.203C208.693 213.541 207.909 212.013 206.708 210.877C206.454 210.64 206.242 210.409 206.248 210.191C206.46 197.04 205.679 173.026 198.628 163.142C196.389 160.006 195.045 156.881 193.09 154.699C193.084 154.693 193.084 154.686 193.078 154.686L188.321 146.661L188.03 146.168L187.703 146L179 185.585Z" fill="#1F7A35"/>
<path d="M155.5 126C165.165 126 173 118.165 173 108.5C173 98.835 165.165 91 155.5 91C145.835 91 138 98.835 138 108.5C138 118.165 145.835 126 155.5 126Z" fill="#FFB6B6"/>
<path d="M180.625 96.0648C180.482 95.9148 180.31 95.7946 180.119 95.7115C179.928 95.6284 179.722 95.584 179.513 95.581L179.79 94.825C179.88 94.5868 179.905 94.3293 179.861 94.0788C179.817 93.8283 179.705 93.5939 179.539 93.3995C179.372 93.2051 179.156 93.0577 178.912 92.9725C178.669 92.8872 178.407 92.8672 178.152 92.9144L177.143 93.1055L177.239 92.4429C177.275 92.1961 177.246 91.9442 177.153 91.712C177.06 91.4799 176.908 91.2754 176.711 91.1187C176.513 90.962 176.278 90.8586 176.027 90.8185C175.777 90.7784 175.52 90.803 175.283 90.89C175.066 90.9737 174.834 91.0087 174.602 90.9926C174.37 90.9764 174.145 90.9094 173.943 90.7965C173.74 90.6871 173.564 90.5355 173.427 90.3522C173.29 90.169 173.195 89.9585 173.149 89.7355L172.797 88.0689L172.76 87.9794C171.048 85.1746 167.757 83.1339 163.729 82.386C160.144 81.7152 156.468 82.0567 152.924 82.3778C151.518 82.5079 149.93 82.6543 148.607 83.451C147.482 84.1339 146.531 85.4998 146.726 86.8778C143.232 85.825 139.485 87.9266 137.628 90.577C135.429 93.7314 135.069 97.6826 135.011 100.772C134.854 108.081 136.388 114.061 139.56 118.548C139.791 118.874 139.849 119.552 140.308 119.78L140.213 119.63C140.726 119.882 141.247 120.288 141.052 120.723C140.494 121.975 144.203 124.743 146.817 125.658C151.584 127.329 157.924 127.187 162.381 126.585L162.538 125.548C164.147 125.333 165.28 124.922 165.598 124.28C166.161 123.809 166.64 123.386 167.058 122.996L167.062 122.991C167.07 122.983 167.087 122.971 167.095 122.963C169.109 121.065 169.576 119.983 169.787 118.337C169.99 116.723 169.63 115.085 169.262 113.609C177.011 114.788 166.21 105.496 173.43 103.699C173.513 103.674 173.597 103.653 173.682 103.638C173.893 103.589 174.104 103.54 174.307 103.483C175.284 103.223 176.219 102.83 177.086 102.317C179.104 101.109 179.769 99.5079 180.811 97.703C180.962 97.446 181.025 97.1486 180.991 96.8539C180.958 96.5593 180.83 96.2828 180.625 96.0648V96.0648Z" fill="#17281E"/>
<path d="M220 187.063C219.996 187.773 219.988 188.766 219.955 189.995C219.951 190.165 219.947 190.34 219.943 190.518C219.89 192.777 219.838 194.67 219.753 196.775C219.749 196.921 219.744 197.063 219.736 197.209C219.623 200.144 219.444 203.563 219.136 208.976C218.564 218.976 217.567 210.351 216.565 213.858C216.516 214.033 216.463 214.239 216.415 214.483C216.263 215.365 216.007 216.227 215.652 217.049C215.121 217.366 214.573 217.67 214.034 217.974C212.497 218.83 210.935 219.653 209.362 220.435C208.478 220.873 207.589 221.303 206.697 221.717C206.555 221.782 206.417 221.846 206.279 221.907C201.71 224.02 197.001 225.817 192.186 227.284C191.245 227.568 190.308 227.844 189.359 228.099C188.369 228.375 187.38 228.634 186.378 228.878C178.925 230.707 171.3 231.739 163.629 231.955C162.595 231.988 161.552 232 160.506 232C159.987 232 159.476 231.996 158.957 231.992C158.799 231.992 158.64 231.988 158.482 231.984C158.024 231.972 157.549 231.963 157.071 231.951C147.815 231.663 138.635 230.187 129.755 227.56L129.378 227.45C128.794 227.272 128.214 227.098 127.634 226.911C124.957 226.064 122.32 225.115 119.721 224.064C117.738 223.266 115.778 222.409 113.841 221.494C113.823 221.489 113.806 221.481 113.792 221.469C113.386 221.283 112.977 221.088 112.571 220.889C112.518 220.861 112.462 220.833 112.405 220.804C110.892 220.066 109.395 219.293 107.915 218.485C106.67 215.626 104.918 215.079 103.831 212.565C103.515 211.818 103.286 211.037 103.15 210.237C103.15 210.229 103.145 210.221 103.145 210.209C103.259 211.717 102.663 207.533 103.141 210.193C103.137 210.144 103.133 210.091 103.129 210.03C103.117 209.884 103.101 209.706 103.077 209.483C101.685 195.903 101.775 180.373 101.17 167.575C101.13 166.748 101.088 165.956 101.045 165.199C101.032 164.948 101.016 164.7 101 164.457C101.028 164.384 101.061 164.307 101.097 164.234C101.105 164.213 101.115 164.193 101.126 164.173C101.138 164.148 101.151 164.124 101.166 164.1C101.174 164.088 101.187 164.072 101.195 164.06C101.201 164.046 101.207 164.032 101.215 164.019C101.251 163.962 101.292 163.902 101.337 163.845C101.357 163.82 101.373 163.8 101.393 163.78C101.407 163.759 101.424 163.74 101.442 163.723C101.455 163.704 101.47 163.686 101.487 163.67C101.503 163.654 101.519 163.634 101.539 163.614C101.548 163.601 101.559 163.59 101.572 163.581C101.604 163.544 101.639 163.51 101.677 163.48C101.822 163.347 101.977 163.225 102.14 163.115C102.196 163.078 102.257 163.042 102.314 163.001C102.723 162.757 103.153 162.551 103.6 162.385C103.754 162.328 103.908 162.275 104.074 162.219C104.135 162.203 104.192 162.182 104.253 162.162C104.342 162.134 104.431 162.105 104.524 162.085C104.987 161.947 105.486 161.829 106.025 161.72C106.09 161.708 106.159 161.696 106.228 161.679C106.325 161.659 106.427 161.643 106.528 161.627C106.666 161.602 106.808 161.578 106.95 161.554C108.154 161.363 109.521 161.221 111.03 161.128C111.172 161.12 111.314 161.112 111.456 161.104C111.622 161.096 111.788 161.087 111.959 161.079C112.101 161.071 112.247 161.067 112.393 161.063C112.535 161.055 112.681 161.051 112.831 161.047C113.24 161.035 113.662 161.023 114.092 161.014C115.317 160.99 116.607 160.998 117.961 161.027C118.59 161.043 119.231 161.059 119.888 161.087C119.932 161.087 119.973 161.091 120.013 161.091C120.585 161.112 121.161 161.136 121.753 161.168C122.167 161.189 122.585 161.209 123.002 161.233C123.396 161.258 123.793 161.282 124.195 161.31C124.507 161.327 124.819 161.351 125.136 161.371C125.403 161.392 125.671 161.412 125.939 161.428L126.304 161.452C126.503 161.469 126.701 161.481 126.904 161.501C127.35 161.537 127.796 161.574 128.251 161.61C128.701 161.651 129.159 161.692 129.617 161.732C130.076 161.773 130.538 161.817 131 161.862C131.049 161.866 131.094 161.87 131.138 161.874C131.56 161.919 131.982 161.959 132.408 162.004C132.505 162.012 132.607 162.02 132.704 162.032C133.11 162.073 133.524 162.121 133.934 162.164C134.059 162.178 134.184 162.191 134.311 162.205C134.631 162.24 134.948 162.27 135.271 162.308C135.697 162.357 136.131 162.401 136.553 162.458C136.881 162.494 137.21 162.531 137.538 162.572C138.053 162.632 138.577 162.697 139.1 162.766C139.298 162.79 139.497 162.815 139.696 162.843C141.188 163.03 142.697 163.237 144.23 163.451C146.554 163.78 148.915 164.137 151.291 164.522C153.672 164.907 156.066 165.314 158.474 165.742C159.082 165.852 159.691 165.961 160.303 166.075C160.579 166.128 160.855 166.18 161.131 166.233C161.601 166.318 162.072 166.407 162.542 166.497C163.012 166.586 163.483 166.675 163.953 166.768C164.513 166.878 165.077 166.987 165.637 167.097C169.323 167.827 172.99 168.605 176.567 169.42C177.155 169.554 177.743 169.692 178.327 169.826C179.495 170.097 180.652 170.373 181.799 170.653C182.115 170.726 182.427 170.803 182.74 170.88C183.518 171.075 184.297 171.269 185.064 171.468L185.198 171.504C185.761 171.642 186.313 171.784 186.864 171.93C188.166 172.271 189.447 172.616 190.705 172.964C191.541 173.195 192.367 173.429 193.183 173.666C194.404 174.019 195.601 174.375 196.765 174.736C197.052 174.825 197.34 174.915 197.624 175C198.476 175.263 199.316 175.531 200.131 175.799C200.78 176.01 201.412 176.224 202.037 176.439C202.662 176.654 203.274 176.869 203.874 177.084C204.26 177.222 204.641 177.368 205.022 177.506C205.57 177.709 206.109 177.911 206.636 178.114C206.798 178.175 206.957 178.24 207.115 178.301C207.216 178.345 207.314 178.382 207.411 178.422C207.602 178.499 207.796 178.572 207.983 178.649C208.173 178.722 208.36 178.799 208.546 178.88C208.729 178.953 208.916 179.03 209.094 179.107C209.277 179.18 209.455 179.258 209.633 179.339C209.784 179.399 209.93 179.464 210.071 179.529C210.359 179.655 210.647 179.781 210.927 179.91C211.065 179.975 211.203 180.036 211.341 180.101L211.657 180.247C211.702 180.271 211.746 180.292 211.791 180.312C211.892 180.36 211.998 180.413 212.099 180.462C212.335 180.571 212.566 180.689 212.793 180.798C213.097 180.952 213.393 181.107 213.677 181.257C213.965 181.411 214.245 181.565 214.513 181.715C214.557 181.739 214.598 181.763 214.642 181.788C214.703 181.82 214.764 181.857 214.825 181.889C215.032 182.007 215.23 182.128 215.429 182.246C215.818 182.485 216.188 182.72 216.532 182.956C216.609 183.008 216.682 183.061 216.759 183.11C217.015 183.292 217.258 183.471 217.485 183.653C217.485 183.657 217.485 183.657 217.489 183.657C217.567 183.714 217.64 183.775 217.713 183.831C217.773 183.888 217.838 183.937 217.899 183.994C218.11 184.176 218.305 184.35 218.483 184.529C218.543 184.584 218.6 184.642 218.653 184.703C218.677 184.723 218.699 184.745 218.718 184.768C218.799 184.849 218.872 184.93 218.941 185.011C218.952 185.023 218.962 185.035 218.97 185.048C219.067 185.161 219.156 185.275 219.242 185.389C219.282 185.445 219.327 185.502 219.363 185.559C219.412 185.628 219.461 185.701 219.501 185.77C219.538 185.826 219.57 185.887 219.602 185.944C219.689 186.09 219.762 186.244 219.822 186.402C219.867 186.51 219.904 186.621 219.931 186.735C219.962 186.842 219.985 186.952 220 187.063V187.063Z" fill="#194429"/>
<path opacity="0.2" d="M220 186.568C219.996 187.264 219.988 188.239 219.955 189.444C219.951 189.611 219.943 189.782 219.939 189.957C219.899 191.648 219.838 193.737 219.753 196.096C219.749 196.239 219.744 196.378 219.736 196.522C219.623 199.402 219.444 202.756 219.136 208.067C218.564 217.877 217.567 209.415 216.565 212.857C213.783 211.178 210.733 209.419 207.472 207.613C206.884 207.287 206.291 206.96 205.692 206.631C199.17 203.062 191.886 199.322 184.282 195.619C183.982 195.471 183.678 195.324 183.378 195.181C165.959 186.735 146.946 178.52 131.543 173.038C128.57 171.979 125.731 171.025 123.063 170.185C117.441 168.423 112.583 167.189 108.844 166.656C104.95 166.099 102.261 166.298 101.174 167.448C101.134 166.636 101.092 165.859 101.049 165.117C101.032 164.87 101.016 164.627 101 164.389C101.025 164.323 101.058 164.261 101.089 164.198C101.094 164.188 101.097 164.179 101.101 164.17C101.109 164.149 101.119 164.129 101.13 164.11C101.142 164.085 101.155 164.062 101.17 164.039C101.184 164.01 101.2 163.984 101.219 163.959C101.256 163.903 101.296 163.844 101.341 163.788C101.373 163.746 101.409 163.706 101.446 163.669C101.459 163.649 101.474 163.632 101.491 163.617C101.507 163.601 101.523 163.581 101.543 163.561C101.552 163.549 101.563 163.538 101.576 163.529C101.608 163.493 101.643 163.46 101.681 163.43C101.826 163.299 101.981 163.18 102.144 163.072C102.2 163.036 102.261 163 102.318 162.96C102.727 162.721 103.157 162.518 103.604 162.356C103.758 162.3 103.912 162.248 104.078 162.193C104.139 162.177 104.196 162.157 104.257 162.137C104.346 162.109 104.435 162.081 104.528 162.061C104.991 161.926 105.49 161.811 106.029 161.703C106.191 161.671 106.362 161.64 106.532 161.612C106.67 161.588 106.812 161.564 106.954 161.54C108.158 161.353 109.525 161.214 111.034 161.122C111.176 161.114 111.318 161.107 111.459 161.099C111.626 161.091 111.792 161.083 111.962 161.075C112.104 161.067 112.25 161.063 112.396 161.059C112.538 161.051 112.684 161.047 112.834 161.043C113.244 161.031 113.666 161.019 114.096 161.011C115.32 160.991 116.61 160.999 117.965 161.027C118.593 161.039 119.234 161.059 119.891 161.087C119.932 161.087 119.976 161.091 120.017 161.091C120.589 161.107 121.169 161.134 121.757 161.162C122.17 161.182 122.588 161.202 123.006 161.226C123.399 161.25 123.797 161.274 124.198 161.301C124.51 161.317 124.823 161.341 125.139 161.361C125.407 161.381 125.674 161.401 125.942 161.417C126.262 161.441 126.583 161.465 126.907 161.488C127.353 161.524 127.8 161.56 128.254 161.596C128.704 161.636 129.162 161.675 129.62 161.715C130.079 161.755 130.541 161.799 131.003 161.843C131.052 161.846 131.097 161.85 131.141 161.854C131.563 161.898 131.985 161.938 132.411 161.982C134.771 162.216 137.2 162.491 139.699 162.805C141.191 162.992 142.703 163.192 144.233 163.406C146.557 163.728 148.917 164.078 151.294 164.452C153.674 164.83 156.069 165.229 158.476 165.65C159.085 165.757 159.693 165.865 160.305 165.976C161.052 166.111 161.798 166.249 162.544 166.39C163.014 166.477 163.485 166.565 163.955 166.656C164.515 166.764 165.079 166.871 165.638 166.979C169.325 167.695 172.991 168.458 176.568 169.258C177.156 169.389 177.744 169.525 178.328 169.656C179.497 169.923 180.654 170.193 181.8 170.468C182.116 170.543 182.429 170.619 182.741 170.694C183.524 170.885 184.298 171.076 185.065 171.267V171.271C185.109 171.279 185.154 171.291 185.199 171.303C185.758 171.442 186.314 171.581 186.866 171.725C188.167 172.059 189.448 172.396 190.706 172.735C191.542 172.966 192.369 173.193 193.184 173.423C194.405 173.774 195.601 174.124 196.765 174.474C197.053 174.561 197.341 174.649 197.625 174.732C198.477 174.995 199.312 175.256 200.132 175.516C200.78 175.723 201.413 175.934 202.038 176.145C202.662 176.355 203.275 176.566 203.875 176.777C204.264 176.912 204.645 177.052 205.023 177.187C205.574 177.386 206.109 177.585 206.637 177.788C206.799 177.847 206.957 177.911 207.115 177.971C207.411 178.082 207.699 178.197 207.983 178.313C208.174 178.384 208.36 178.46 208.547 178.54C208.729 178.611 208.916 178.687 209.094 178.762C209.277 178.834 209.455 178.91 209.634 178.989C209.784 179.049 209.93 179.112 210.072 179.176C210.36 179.299 210.648 179.423 210.928 179.55C211.065 179.614 211.203 179.673 211.341 179.737L211.658 179.88C211.702 179.904 211.747 179.924 211.791 179.944C212.136 180.103 212.469 180.262 212.793 180.421C213.097 180.573 213.393 180.724 213.677 180.871C214.014 181.046 214.334 181.217 214.642 181.392C214.703 181.424 214.764 181.46 214.825 181.492C215.032 181.607 215.231 181.726 215.429 181.842C215.819 182.076 216.188 182.307 216.532 182.538C216.873 182.769 217.189 182.995 217.485 183.222C217.485 183.226 217.485 183.226 217.49 183.226C217.631 183.337 217.769 183.449 217.899 183.556C218.11 183.735 218.305 183.906 218.483 184.081C218.543 184.135 218.6 184.193 218.654 184.252C218.677 184.272 218.699 184.293 218.718 184.316C218.804 184.408 218.889 184.499 218.97 184.591C219.067 184.702 219.156 184.813 219.242 184.925C219.282 184.98 219.327 185.036 219.363 185.092C219.412 185.16 219.461 185.231 219.501 185.299C219.538 185.354 219.57 185.414 219.603 185.47C219.689 185.613 219.762 185.764 219.822 185.919C219.866 186.025 219.903 186.134 219.931 186.246C219.962 186.351 219.985 186.459 220 186.568V186.568Z" fill="black"/>
</svg>
