<svg width="196" height="350" viewBox="0 0 196 350" fill="none" xmlns="http://www.w3.org/2000/svg">
<path d="M143.195 0H33.8054C16.792 0 3 13.855 3 30.9461V282.054C3 299.145 16.792 313 33.8054 313H143.195C160.208 313 174 299.145 174 282.054V30.9461C174 13.855 160.208 0 143.195 0Z" fill="#143621"/>
<path d="M171 31.0302V281.97C170.991 289.401 168.051 296.526 162.824 301.781C157.597 307.035 150.51 309.991 143.118 310H33.8824C26.4901 309.991 19.4031 307.035 14.176 301.781C8.9489 296.526 6.00855 289.401 6 281.97V31.0302C6.00856 23.5988 8.9489 16.4742 14.176 11.2194C19.4031 5.96454 26.4901 3.0086 33.8824 3H48.1667V7.96044C48.1668 10.2061 49.0542 12.3598 50.6338 13.9477C52.2134 15.5357 54.3557 16.4278 56.5895 16.428C75.0826 22.0439 96.7902 21.1674 120.41 16.428C122.644 16.4278 124.787 15.5357 126.366 13.9477C127.946 12.3598 128.833 10.2061 128.833 7.96044V3H143.118C150.51 3.0086 157.597 5.96454 162.824 11.2194C168.051 16.4742 170.991 23.5988 171 31.0302Z" fill="white"/>
<path d="M156.896 182H20.1042C14.5238 182 10 186.851 10 192.835V207.165C10 213.149 14.5238 218 20.1042 218H156.896C162.476 218 167 213.149 167 207.165V192.835C167 186.851 162.476 182 156.896 182Z" fill="#198E36"/>
<path d="M156.896 225H20.1042C14.5238 225 10 229.851 10 235.835V250.165C10 256.149 14.5238 261 20.1042 261H156.896C162.476 261 167 256.149 167 250.165V235.835C167 229.851 162.476 225 156.896 225Z" fill="#198E36"/>
<path d="M2 64C1.46975 63.9993 0.961397 63.762 0.586456 63.3402C0.211515 62.9184 0.000607413 62.3465 0 61.75V57.25C0 56.6533 0.210712 56.081 0.585785 55.659C0.960858 55.2371 1.46957 55 2 55C2.53043 55 3.03914 55.2371 3.41422 55.659C3.78929 56.081 4 56.6533 4 57.25V61.75C3.99939 62.3465 3.78849 62.9184 3.41354 63.3402C3.0386 63.762 2.53025 63.9993 2 64V64Z" fill="#143621"/>
<path d="M2 85C1.46975 84.9994 0.961398 84.7745 0.586456 84.3749C0.211515 83.9752 0.000606092 83.4334 0 82.8682V71.1318C0 70.5664 0.210712 70.0242 0.585785 69.6244C0.960858 69.2246 1.46957 69 2 69C2.53043 69 3.03914 69.2246 3.41422 69.6244C3.78929 70.0242 4 70.5664 4 71.1318V82.8682C3.99939 83.4334 3.78849 83.9752 3.41354 84.3749C3.0386 84.7745 2.53025 84.9994 2 85V85Z" fill="#143621"/>
<path d="M2 102C1.46975 101.999 0.961398 101.789 0.586456 101.414C0.211515 101.039 0.000606092 100.531 0 100.001V88.9986C0 88.4685 0.210712 87.9602 0.585785 87.5854C0.960858 87.2106 1.46957 87 2 87C2.53043 87 3.03914 87.2106 3.41422 87.5854C3.78929 87.9602 4 88.4685 4 88.9986V100.001C3.99939 100.531 3.78848 101.039 3.41354 101.414C3.0386 101.789 2.53025 101.999 2 102V102Z" fill="#143621"/>
<path d="M175 61C174.47 60.9996 173.962 61.2172 173.587 61.605C173.212 61.9929 173.001 62.5192 173 63.0684V90.9265C173 91.4764 173.211 92.0038 173.586 92.3927C173.961 92.7815 174.47 93 175 93C175.53 93 176.039 92.7815 176.414 92.3927C176.789 92.0038 177 91.4764 177 90.9265V63.0684C176.998 62.5195 176.787 61.9936 176.412 61.606C176.037 61.2183 175.529 61.0004 175 61V61Z" fill="#143621"/>
<path d="M41.4324 16H27.5676C26.8866 16 26.2335 15.6839 25.752 15.1213C25.2705 14.5587 25 13.7956 25 13C25 12.2044 25.2705 11.4413 25.752 10.8787C26.2335 10.3161 26.8866 10 27.5676 10H41.4324C42.1134 10 42.7665 10.3161 43.248 10.8787C43.7295 11.4413 44 12.2044 44 13C44 13.7956 43.7295 14.5587 43.248 15.1213C42.7665 15.6839 42.1134 16 41.4324 16V16Z" fill="#E6E6E6"/>
<path opacity="0.1" d="M171 31.8923V170.052C171 185.983 6 185.983 6 170.052V31.8923C6.00856 24.2323 8.9489 16.8886 14.176 11.4722C19.4031 6.05572 26.4901 3.00887 33.8824 3H48.1667V8.11301C48.1668 10.4278 49.0542 12.6477 50.6338 14.2844C52.2134 15.9212 54.3557 16.8408 56.5895 16.8409C74.2971 22.6038 96.1578 21.6551 120.41 16.8409C122.644 16.8408 124.787 15.9212 126.366 14.2844C127.946 12.6477 128.833 10.4278 128.833 8.11301V3H143.118C150.51 3.00887 157.597 6.05572 162.824 11.4722C168.051 16.8886 170.991 24.2323 171 31.8923Z" fill="black"/>
<path d="M156.896 100H20.1042C14.5238 100 10 104.851 10 110.835V125.165C10 131.149 14.5238 136 20.1042 136H156.896C162.476 136 167 131.149 167 125.165V110.835C167 104.851 162.476 100 156.896 100Z" fill="#CFCFCF"/>
<path d="M158.896 141H22.1042C16.5238 141 12 145.851 12 151.835V166.165C12 172.149 16.5238 177 22.1042 177H158.896C164.476 177 169 172.149 169 166.165V151.835C169 145.851 164.476 141 158.896 141Z" fill="#CFCFCF"/>
<path d="M104.297 46H99.6562C97.8791 46.002 96.1753 46.7172 94.9186 47.9888C93.6619 49.2603 92.9551 50.9844 92.9531 52.7826V58H84.7031C82.9259 58.002 81.2221 58.7172 79.9655 59.9888C78.7088 61.2603 78.002 62.9844 78 64.7826V75.2174C78.002 77.0156 78.7088 78.7397 79.9655 80.0112C81.2221 81.2828 82.9259 81.998 84.7031 82H95.0156C96.7928 81.998 98.4966 81.2828 99.7533 80.0112C101.01 78.7397 101.717 77.0156 101.719 75.2174V64.7826C101.717 62.9844 101.01 61.2603 99.7533 59.9888C98.4966 58.7172 96.7928 58.002 95.0156 58H93.9844V52.7826C93.9861 51.261 94.5842 49.8023 95.6475 48.7263C96.7108 47.6504 98.1525 47.0452 99.6562 47.0435H104.297C105.801 47.0452 107.242 47.6504 108.306 48.7263C109.369 49.8023 109.967 51.261 109.969 52.7826V58.5217H111V52.7826C110.998 50.9844 110.291 49.2603 109.035 47.9888C107.778 46.7172 106.074 46.002 104.297 46V46ZM100.688 64.7826V75.2174C100.686 76.739 100.088 78.1977 99.0244 79.2737C97.9611 80.3496 96.5194 80.9548 95.0156 80.9565H84.7031C83.1994 80.9548 81.7577 80.3496 80.6944 79.2737C79.6311 78.1977 79.0329 76.739 79.0312 75.2174V64.7826C79.0329 63.261 79.6311 61.8023 80.6944 60.7263C81.7577 59.6504 83.1994 59.0452 84.7031 59.0435C89.5858 61.9179 92.2758 60.4312 95.0156 59.0435C96.5194 59.0452 97.9611 59.6504 99.0244 60.7263C100.088 61.8023 100.686 63.261 100.688 64.7826V64.7826Z" fill="white"/>
<path d="M89.5 75C90.39 75 91.26 74.7067 92.0001 74.1573C92.7401 73.6079 93.3169 72.827 93.6575 71.9134C93.9981 70.9998 94.0872 69.9944 93.9135 69.0245C93.7399 68.0546 93.3113 67.1637 92.682 66.4645C92.0526 65.7652 91.2508 65.289 90.3779 65.0961C89.505 64.9032 88.6002 65.0022 87.7779 65.3806C86.9557 65.759 86.2529 66.3999 85.7584 67.2222C85.2639 68.0444 85 69.0111 85 70C85.0014 71.3256 85.4759 72.5965 86.3195 73.5338C87.1632 74.4712 88.3069 74.9985 89.5 75V75ZM89.5 68.8889C91.4299 68.8889 93 67.8556 93 70C93 71.0314 92.6313 72.0205 91.9749 72.7499C91.3185 73.4792 90.4283 73.8889 89.5 73.8889C88.5717 73.8889 87.6815 73.4792 87.0251 72.7499C86.3688 72.0205 86 71.0314 86 70C86 67.8556 87.5701 68.8889 89.5 68.8889V68.8889Z" fill="white"/>
<path d="M89.5 72C90.3284 72 91 71.3284 91 70.5C91 69.6716 90.3284 69 89.5 69C88.6716 69 88 69.6716 88 70.5C88 71.3284 88.6716 72 89.5 72Z" fill="white"/>
<path d="M177 76H173V77H177V76Z" fill="white"/>
<path opacity="0.1" d="M6 167V169.776C6 186.075 171 186.075 171 169.776V167C171 183.298 6 183.298 6 167Z" fill="black"/>
<path d="M152.545 199.916C153.551 199.711 154.436 199.121 155.014 198.272C155.592 197.423 155.816 196.382 155.638 195.37C155.599 195.165 155.543 194.964 155.47 194.768L166 185.927L163.399 179L150.283 192.672C149.495 193.035 148.85 193.65 148.448 194.42C148.045 195.189 147.909 196.07 148.06 196.926C148.242 197.907 148.807 198.776 149.629 199.34C150.451 199.905 151.464 200.119 152.444 199.936V199.936C152.478 199.93 152.512 199.923 152.545 199.916Z" fill="#A0616A"/>
<path d="M157.134 147L152.804 150.395C152.804 150.395 147.63 159.646 151.339 161.564C155.048 163.483 166.578 169.863 166.578 169.863C166.578 169.863 161.813 174.528 161.25 176.794C160.688 179.059 161.933 181.072 159.958 180.599C157.983 180.125 157.927 181.668 157.445 183.61C156.963 185.552 153.752 187.34 153.752 187.34L159.89 191.794C159.89 191.794 162.732 192.781 162.965 190.436C163.197 188.091 162.55 188.422 164.525 188.896C166.5 189.37 168.164 186.331 169.216 183.497C170.268 180.663 181 167.471 181 167.471L169.772 155.184C166.344 151.434 161.991 148.615 157.134 147V147Z" fill="#1F7A35"/>
<path d="M155.865 340L151.799 339.961L150 322L156 322.057L155.865 340Z" fill="#A0616A"/>
<path d="M142 346.83C141.996 347.368 142.211 347.886 142.597 348.27C142.983 348.654 143.509 348.872 144.06 348.877L153.301 348.953L154.919 345.749L155.513 348.969L159 349L158.12 337.516L156.906 337.438L151.958 337.104L150.362 337L150.334 340.249L142.911 345.168C142.633 345.352 142.404 345.6 142.246 345.889C142.087 346.179 142.003 346.501 142 346.83V346.83Z" fill="#143621"/>
<path d="M115.865 340L111.8 339.961L110 322L116 322.057L115.865 340Z" fill="#A0616A"/>
<path d="M102 346.83C101.996 347.368 102.198 347.886 102.562 348.27C102.925 348.654 103.421 348.872 103.939 348.877L112.636 348.953L114.159 345.749L114.718 348.969L118 349L117.171 337.516L116.03 337.438L111.373 337.104L109.87 337L109.844 340.249L102.857 345.168C102.595 345.352 102.381 345.6 102.231 345.889C102.082 346.179 102.003 346.501 102 346.83V346.83Z" fill="#143621"/>
<path d="M127.839 192C127.839 192 119.457 196.205 121.642 198.736C123.827 201.267 122.031 202.699 119.307 205.076C116.584 207.453 111.1 235.303 111.1 235.303L104 278.444C104 278.444 105.884 316.114 107.148 317.456C108.412 318.797 110.358 316.816 108.412 318.797C106.467 320.779 104.91 319.194 106.467 320.779C108.023 322.364 108.412 326.722 108.412 326.722L118.495 325.857C118.495 325.857 125.059 296.902 120.627 284.075L138.014 237.153L143.27 282.428C143.27 282.428 146.156 319.194 148.101 320.382C150.047 321.571 151.448 321.651 149.775 323.196C148.101 324.741 148.101 322.364 148.101 324.741V328.684L157.513 330C157.513 330 161.885 294.754 159.857 278.444L166 223.699L161.215 199.029L156.272 192.396L127.839 192Z" fill="#143621"/>
<path d="M86.6182 179.303C87.4698 179.86 88.5304 180.097 89.5744 179.964C90.6184 179.831 91.5634 179.34 92.2082 178.593C92.3367 178.44 92.4506 178.277 92.549 178.106L106.545 179.793L110 173.741L90.5484 173.284C89.7271 172.974 88.8141 172.916 87.9519 173.119C87.0896 173.321 86.3267 173.774 85.7821 174.405C85.476 174.767 85.2527 175.18 85.1248 175.619C84.9969 176.058 84.9669 176.516 85.0366 176.965C85.1064 177.415 85.2743 177.848 85.5311 178.239C85.7878 178.631 86.1281 178.973 86.5328 179.247V179.247C86.561 179.266 86.5895 179.285 86.6182 179.303Z" fill="#A0616A"/>
<path d="M128.947 147.847L123.628 147C123.628 147 117.245 150.472 118.272 154.401C119.3 158.33 118.42 169.782 118.42 169.782C118.42 169.782 111.888 169.466 109.863 170.567C107.839 171.668 107.182 173.895 106.235 172.166C105.288 170.438 106.287 169.52 104.551 170.464C102.816 171.408 97.2411 172.196 97.2411 172.196L95 179.797C95 179.797 98.1137 184.062 99.9803 182.673C101.847 181.284 102.214 179.214 103.162 180.943C104.109 182.672 104.373 185.894 107.134 184.766C109.895 183.639 129.616 178.522 129.616 178.522L132 154.788L128.947 147.847Z" fill="#1F7A35"/>
<path d="M124.082 198.595C124.082 198.595 120.312 192.508 121.03 191.616C121.748 190.723 122.647 192.266 121.03 190.707C119.413 189.148 128.48 178.746 129.075 177.214C129.671 175.681 120 148.927 120 148.927L128.237 143.908L135.198 134L147.648 136.015L152.029 144.998L158.216 147.207L158.736 147.733V164.053C158.736 164.053 161.49 177.982 155.431 182.778C155.431 182.778 158.322 189.148 157.544 190.329C156.766 191.51 170.757 207.027 159.777 208.8C147.749 210.741 122.094 197.907 124.082 198.595Z" fill="#1F7A35"/>
<path d="M62 349C61.9998 349.131 62.0157 349.262 62.047 349.383C62.0782 349.505 62.1242 349.615 62.1821 349.708C62.2401 349.801 62.309 349.875 62.3847 349.925C62.4605 349.975 62.5418 350 62.6237 350H195.376C195.542 350 195.7 349.895 195.817 349.707C195.934 349.52 196 349.265 196 349C196 348.735 195.934 348.48 195.817 348.293C195.7 348.105 195.542 348 195.376 348H62.6237C62.5418 348 62.4605 348.025 62.3847 348.075C62.309 348.125 62.2401 348.199 62.1821 348.292C62.1242 348.385 62.0783 348.495 62.047 348.617C62.0157 348.738 61.9998 348.869 62 349Z" fill="#CCCCCC"/>
<path d="M143 136C150.18 136 156 130.404 156 123.5C156 116.596 150.18 111 143 111C135.82 111 130 116.596 130 123.5C130 130.404 135.82 136 143 136Z" fill="#A0616A"/>
<path d="M153.479 114.317C153.342 113.18 152.525 111.774 151.957 110.766C151.388 109.757 150.29 108.934 149.092 109.004C148.603 109.058 148.135 109.225 147.727 109.489C147.319 109.753 146.985 110.107 146.752 110.521C146.295 111.355 146.046 112.279 146.024 113.22C145.899 115.319 146.266 117.418 147.1 119.365C147.933 121.311 149.211 123.056 150.841 124.472C151.77 125.266 152.887 125.973 154.134 126C154.701 125.987 155.258 125.866 155.775 125.645C156.292 125.423 156.757 125.105 157.143 124.709C159.161 122.781 159.466 119.611 158.388 117.087C157.31 114.564 156.829 113.582 154.365 112.203" fill="#2F2E41"/>
<path d="M135.173 132.892C135.388 134.046 133.409 139.533 134.042 140.521C134.042 140.521 140.589 142.815 143.093 142.979C146.151 143.179 148.611 141.914 151.472 140.01C151.523 138.977 151.82 137.971 152.336 137.078C152.293 137.77 152.432 138.461 152.74 139.081C163.454 136.398 160.831 126.704 154.36 122.162L150.059 112.186C151.349 112.62 147.454 105.919 143.346 110.772C138.206 105.494 128.248 113.093 127 119.88C128.201 118.348 128.826 118.529 129.134 119.586C129.488 118.697 130.048 117.907 130.768 117.282C130.41 117.996 130.227 118.786 130.235 119.585C138.343 120.093 136.834 125.609 130.188 133.871C132.646 132.328 130.987 138.976 132.3 140.565C132.364 139.454 134.941 133.972 135.173 132.892Z" fill="#17281E"/>
<path d="M147.523 122C147.638 122 147.749 121.961 147.836 121.89C147.923 121.819 147.98 121.722 147.995 121.615C148.011 121.508 147.985 121.4 147.923 121.31C147.86 121.219 147.764 121.153 147.653 121.124C147.551 120.574 147.54 120.013 147.621 119.461C147.776 116.994 148.036 112.866 143.749 110.079C143.645 110.012 143.517 109.986 143.392 110.007C143.268 110.028 143.158 110.095 143.085 110.192C143.013 110.289 142.985 110.408 143.007 110.525C143.03 110.641 143.1 110.744 143.204 110.812C147.051 113.313 146.82 116.981 146.667 119.408C146.58 120.796 146.517 121.798 147.417 121.989C147.452 121.996 147.487 122 147.523 122V122Z" fill="#E58E29"/>
<path d="M147 112.846C149.659 111.754 152.492 111.133 155.368 111.011C157.65 110.915 160.372 111.419 161.299 113.484C161.862 114.737 161.562 116.205 161.048 117.478C160.533 118.751 158.128 121.32 159.513 121.292C162.992 121.222 164.477 124.3 162.712 129.084C161.688 131.858 168.039 131.752 171 132.123C168.775 132.94 166.517 133.764 164.152 133.96C161.788 134.156 159.263 133.647 157.497 132.079C155.587 130.381 154.853 127.744 154.528 125.224C154.203 122.703 154.186 120.107 153.323 117.715C152.46 115.322 150.476 113.093 147.918 112.881" fill="#17281E"/>
</svg>
